<?xml version="1.0" encoding="UTF-8" standalone="no"?>
<!-- Created with Inkscape (http://www.inkscape.org/) -->

<svg
   width="434.32422"
   height="1302.9727"
   viewBox="0 0 434.32422 1302.9727"
   version="1.1"
   id="svg1"
   xmlns="http://www.w3.org/2000/svg"
   xmlns:svg="http://www.w3.org/2000/svg">
  <defs
     id="defs1" />
  <g
     id="layer1"
     transform="translate(-2827.06, 286.917)">
    <rect
       style="opacity:1;fill:#ff0010;fill-opacity:1;stroke-width:2.6;stroke-linecap:square;paint-order:stroke markers fill"
       id="rect3"
       width="434.32422"
       height="434.32422"
       x="2827.0601"
       y="87.407402" />
    <rect
       x="2827.0603"
       y="581.73163"
       width="434.32401"
       height="434.32401"
       style="fill:#c2dc7f;fill-opacity:1;stroke:none;stroke-width:1"
       id="rect579" />
    <g
       style="fill:#000000;stroke:none;stroke-width:1.55414"
       id="g579"
       transform="matrix(0.64344296,0,0,0.64344296,2827.0601,581.73161)">
      <path
         d="m 614.925,615 h -59.85 C 555.034,615 555,614.966 555,614.925 v -14.85 c 0,-0.041 0.034,-0.075 0.075,-0.075 h 44.85 c 0.041,0 0.075,-0.034 0.075,-0.075 v -29.85 c 0,-0.041 0.034,-0.075 0.075,-0.075 h 14.85 c 0.041,0 0.075,0.034 0.075,0.075 v 44.85 c 0,0.041 -0.034,0.075 -0.075,0.075 z m -90,0 h -29.85 C 495.034,615 495,614.966 495,614.925 v -14.85 C 495,600.034 494.966,600 494.925,600 h -14.85 C 480.034,600 480,599.966 480,599.925 v -14.85 c 0,-0.041 0.034,-0.075 0.075,-0.075 h 14.85 c 0.041,0 0.075,-0.034 0.075,-0.075 v -14.85 c 0,-0.041 0.034,-0.075 0.075,-0.075 h 14.85 c 0.041,0 0.075,0.034 0.075,0.075 v 14.85 c 0,0.041 0.034,0.075 0.075,0.075 h 14.85 c 0.041,0 0.075,0.034 0.075,0.075 v 29.85 c 0,0.041 -0.034,0.075 -0.075,0.075 z m -45,0 h -59.85 C 420.034,615 420,614.966 420,614.925 v -29.85 c 0,-0.041 0.034,-0.075 0.075,-0.075 h 14.85 c 0.041,0 0.075,0.034 0.075,0.075 v 14.85 c 0,0.041 0.034,0.075 0.075,0.075 h 44.85 c 0.041,0 0.075,0.034 0.075,0.075 v 14.85 c 0,0.041 -0.034,0.075 -0.075,0.075 z m -195,0 h -74.85 C 210.034,615 210,614.966 210,614.925 v -29.85 C 210,585.034 209.966,585 209.925,585 h -29.85 C 180.034,585 180,584.966 180,584.925 v -44.85 c 0,-0.041 0.034,-0.075 0.075,-0.075 h 29.85 c 0.041,0 0.075,0.034 0.075,0.075 v 14.85 c 0,0.041 -0.034,0.075 -0.075,0.075 h -14.85 c -0.041,0 -0.075,0.034 -0.075,0.075 v 14.85 c 0,0.041 0.034,0.075 0.075,0.075 h 74.85 c 0.041,0 0.075,0.034 0.075,0.075 v 14.85 c 0,0.041 0.034,0.075 0.075,0.075 h 14.85 c 0.041,0 0.075,-0.034 0.075,-0.075 v -29.85 c 0,-0.041 0.034,-0.075 0.075,-0.075 h 14.85 c 0.041,0 0.075,0.034 0.075,0.075 v 44.85 c 0,0.041 -0.034,0.075 -0.075,0.075 h -14.85 c -0.041,0 -0.075,0.034 -0.075,0.075 v 14.85 c 0,0.041 -0.034,0.075 -0.075,0.075 z m -120,0 H 60.075 C 60.0336,615 60,614.966 60,614.925 V 510.075 C 60,510.034 60.0336,510 60.075,510 h 104.85 c 0.041,0 0.075,0.034 0.075,0.075 v 104.85 c 0,0.041 -0.034,0.075 -0.075,0.075 z m 390,-15 h -14.85 C 540.034,600 540,599.966 540,599.925 v -14.85 c 0,-0.041 0.034,-0.075 0.075,-0.075 h 14.85 c 0.041,0 0.075,0.034 0.075,0.075 v 14.85 c 0,0.041 -0.034,0.075 -0.075,0.075 z m -150,0 h -44.85 C 360.034,600 360,599.966 360,599.925 v -14.85 C 360,585.034 359.966,585 359.925,585 h -44.85 C 315.034,585 315,584.966 315,584.925 v -14.85 c 0,-0.041 0.034,-0.075 0.075,-0.075 h 59.85 c 0.041,0 0.075,0.034 0.075,0.075 v 14.85 c 0,0.041 0.034,0.075 0.075,0.075 h 29.85 c 0.041,0 0.075,0.034 0.075,0.075 v 14.85 c 0,0.041 -0.034,0.075 -0.075,0.075 z M 255,599.925 v -14.85 C 255,585.034 254.966,585 254.925,585 h -14.85 c -0.041,0 -0.075,0.034 -0.075,0.075 v 14.85 c 0,0.041 0.034,0.075 0.075,0.075 h 14.85 c 0.041,0 0.075,-0.034 0.075,-0.075 z m -105,0 v -74.85 C 150,525.034 149.966,525 149.925,525 H 75.075 C 75.0336,525 75,525.034 75,525.075 v 74.85 c 0,0.041 0.0336,0.075 0.075,0.075 h 74.85 c 0.041,0 0.075,-0.034 0.075,-0.075 z M 569.925,585 h -14.85 C 555.034,585 555,584.966 555,584.925 v -14.85 c 0,-0.041 0.034,-0.075 0.075,-0.075 h 14.85 c 0.041,0 0.075,0.034 0.075,0.075 v 14.85 c 0,0.041 -0.034,0.075 -0.075,0.075 z m -30,0 h -14.85 C 525.034,585 525,584.966 525,584.925 v -14.85 C 525,570.034 524.966,570 524.925,570 h -14.85 C 510.034,570 510,569.966 510,569.925 v -14.85 C 510,555.034 509.966,555 509.925,555 h -14.85 c -0.041,0 -0.075,0.034 -0.075,0.075 v 14.85 c 0,0.041 -0.034,0.075 -0.075,0.075 h -14.85 C 480.034,570 480,569.966 480,569.925 v -14.85 C 480,555.034 479.966,555 479.925,555 h -14.85 c -0.041,0 -0.075,0.034 -0.075,0.075 v 14.85 c 0,0.041 -0.034,0.075 -0.075,0.075 h -44.85 C 420.034,570 420,569.966 420,569.925 v -14.85 c 0,-0.041 0.034,-0.075 0.075,-0.075 h 14.85 c 0.041,0 0.075,-0.034 0.075,-0.075 v -14.85 c 0,-0.041 0.034,-0.075 0.075,-0.075 h 14.85 c 0.041,0 0.075,-0.034 0.075,-0.075 v -14.85 c 0,-0.041 0.034,-0.075 0.075,-0.075 h 14.85 c 0.041,0 0.075,0.034 0.075,0.075 v 14.85 c 0,0.041 0.034,0.075 0.075,0.075 h 14.85 c 0.041,0 0.075,-0.034 0.075,-0.075 v -59.85 C 480,480.034 479.966,480 479.925,480 h -14.85 c -0.041,0 -0.075,0.034 -0.075,0.075 v 29.85 c 0,0.041 -0.034,0.075 -0.075,0.075 h -29.85 C 435.034,510 435,509.966 435,509.925 v -14.85 C 435,495.034 434.966,495 434.925,495 h -14.85 c -0.041,0 -0.075,0.034 -0.075,0.075 v 14.85 c 0,0.041 -0.034,0.075 -0.075,0.075 h -14.85 c -0.041,0 -0.075,0.034 -0.075,0.075 v 14.85 c 0,0.041 -0.034,0.075 -0.075,0.075 h -44.85 C 360.034,525 360,524.966 360,524.925 v -14.85 c 0,-0.041 0.034,-0.075 0.075,-0.075 h 29.85 c 0.041,0 0.075,-0.034 0.075,-0.075 v -14.85 c 0,-0.041 0.034,-0.075 0.075,-0.075 h 14.85 c 0.041,0 0.075,-0.034 0.075,-0.075 v -44.85 c 0,-0.041 0.034,-0.075 0.075,-0.075 h 59.85 c 0.041,0 0.075,-0.034 0.075,-0.075 v -14.85 c 0,-0.041 0.034,-0.075 0.075,-0.075 h 14.85 c 0.041,0 0.075,0.034 0.075,0.075 v 29.85 c 0,0.041 0.034,0.075 0.075,0.075 h 29.85 c 0.041,0 0.075,0.034 0.075,0.075 v 14.85 c 0,0.041 0.034,0.075 0.075,0.075 h 29.85 c 0.041,0 0.075,-0.034 0.075,-0.075 v -14.85 c 0,-0.041 0.034,-0.075 0.075,-0.075 h 14.85 c 0.041,0 0.075,0.034 0.075,0.075 v 14.85 c 0,0.041 0.034,0.075 0.075,0.075 h 29.85 c 0.041,0 0.075,0.034 0.075,0.075 v 14.85 c 0,0.041 -0.034,0.075 -0.075,0.075 h -29.85 c -0.041,0 -0.075,0.034 -0.075,0.075 v 14.85 c 0,0.041 0.034,0.075 0.075,0.075 h 14.85 c 0.041,0 0.075,0.034 0.075,0.075 v 14.85 c 0,0.041 -0.034,0.075 -0.075,0.075 h -14.85 c -0.041,0 -0.075,0.034 -0.075,0.075 v 44.85 c 0,0.041 -0.034,0.075 -0.075,0.075 h -14.85 c -0.041,0 -0.075,0.034 -0.075,0.075 v 14.85 c 0,0.041 -0.034,0.075 -0.075,0.075 z m -405,0 H 90.075 C 90.0336,585 90,584.966 90,584.925 v -44.85 C 90,540.034 90.0336,540 90.075,540 h 44.85 c 0.041,0 0.075,0.034 0.075,0.075 v 44.85 c 0,0.041 -0.034,0.075 -0.075,0.075 z m 450,-15 h -14.85 C 570.034,570 570,569.966 570,569.925 v -29.85 c 0,-0.041 0.034,-0.075 0.075,-0.075 h 14.85 c 0.041,0 0.075,-0.034 0.075,-0.075 v -44.85 c 0,-0.041 0.034,-0.075 0.075,-0.075 h 14.85 c 0.041,0 0.075,0.034 0.075,0.075 v 14.85 c 0,0.041 0.034,0.075 0.075,0.075 h 14.85 c 0.041,0 0.075,0.034 0.075,0.075 v 14.85 c 0,0.041 -0.034,0.075 -0.075,0.075 h -14.85 c -0.041,0 -0.075,0.034 -0.075,0.075 v 14.85 c 0,0.041 0.034,0.075 0.075,0.075 h 14.85 c 0.041,0 0.075,0.034 0.075,0.075 v 14.85 c 0,0.041 -0.034,0.075 -0.075,0.075 h -29.85 c -0.041,0 -0.075,0.034 -0.075,0.075 v 14.85 c 0,0.041 -0.034,0.075 -0.075,0.075 z m -195,0 h -14.85 C 375.034,570 375,569.966 375,569.925 v -29.85 c 0,-0.041 0.034,-0.075 0.075,-0.075 h 44.85 c 0.041,0 0.075,0.034 0.075,0.075 v 14.85 c 0,0.041 -0.034,0.075 -0.075,0.075 h -29.85 c -0.041,0 -0.075,0.034 -0.075,0.075 v 14.85 c 0,0.041 -0.034,0.075 -0.075,0.075 z m -45,-15 h -44.85 C 300.034,555 300,554.966 300,554.925 v -14.85 C 300,540.034 299.966,540 299.925,540 h -29.85 C 270.034,540 270,539.966 270,539.925 v -14.85 C 270,525.034 269.966,525 269.925,525 h -14.85 C 255.034,525 255,524.966 255,524.925 v -14.85 c 0,-0.041 0.034,-0.075 0.075,-0.075 h 14.85 c 0.041,0 0.075,-0.034 0.075,-0.075 v -14.85 c 0,-0.041 0.034,-0.075 0.075,-0.075 h 29.85 c 0.041,0 0.075,0.034 0.075,0.075 v 29.85 c 0,0.041 0.034,0.075 0.075,0.075 h 14.85 c 0.041,0 0.075,-0.034 0.075,-0.075 v -29.85 C 315,495.034 314.966,495 314.925,495 h -14.85 C 300.034,495 300,494.966 300,494.925 v -14.85 c 0,-0.041 0.034,-0.075 0.075,-0.075 h 14.85 c 0.041,0 0.075,-0.034 0.075,-0.075 v -14.85 C 315,465.034 314.966,465 314.925,465 h -59.85 C 255.034,465 255,464.966 255,464.925 v -14.85 c 0,-0.041 0.034,-0.075 0.075,-0.075 h 14.85 c 0.041,0 0.075,-0.034 0.075,-0.075 v -14.85 C 270,435.034 269.966,435 269.925,435 h -14.85 C 255.034,435 255,434.966 255,434.925 v -14.85 c 0,-0.041 0.034,-0.075 0.075,-0.075 h 29.85 c 0.041,0 0.075,-0.034 0.075,-0.075 v -59.85 c 0,-0.041 0.034,-0.075 0.075,-0.075 h 14.85 c 0.041,0 0.075,0.034 0.075,0.075 v 14.85 c 0,0.041 0.034,0.075 0.075,0.075 h 14.85 c 0.041,0 0.075,0.034 0.075,0.075 v 14.85 c 0,0.041 -0.034,0.075 -0.075,0.075 h -14.85 c -0.041,0 -0.075,0.034 -0.075,0.075 v 44.85 c 0,0.041 0.034,0.075 0.075,0.075 h 29.85 c 0.041,0 0.075,-0.034 0.075,-0.075 v -14.85 c 0,-0.041 0.034,-0.075 0.075,-0.075 h 14.85 c 0.041,0 0.075,0.034 0.075,0.075 v 14.85 c 0,0.041 0.034,0.075 0.075,0.075 h 29.85 c 0.041,0 0.075,0.034 0.075,0.075 v 29.85 c 0,0.041 -0.034,0.075 -0.075,0.075 h -14.85 C 360.034,465 360,464.966 360,464.925 v -14.85 C 360,450.034 359.966,450 359.925,450 h -29.85 c -0.041,0 -0.075,0.034 -0.075,0.075 v 14.85 c 0,0.041 0.034,0.075 0.075,0.075 h 14.85 c 0.041,0 0.075,0.034 0.075,0.075 v 29.85 c 0,0.041 -0.034,0.075 -0.075,0.075 h -14.85 c -0.041,0 -0.075,0.034 -0.075,0.075 v 29.85 c 0,0.041 0.034,0.075 0.075,0.075 h 29.85 c 0.041,0 0.075,0.034 0.075,0.075 v 14.85 c 0,0.041 -0.034,0.075 -0.075,0.075 h -14.85 c -0.041,0 -0.075,0.034 -0.075,0.075 v 14.85 c 0,0.041 -0.034,0.075 -0.075,0.075 z m -90,0 h -14.85 C 240.034,555 240,554.966 240,554.925 v -14.85 c 0,-0.041 0.034,-0.075 0.075,-0.075 h 14.85 c 0.041,0 0.075,0.034 0.075,0.075 v 14.85 c 0,0.041 -0.034,0.075 -0.075,0.075 z M 540,539.925 v -44.85 C 540,495.034 539.966,495 539.925,495 h -44.85 c -0.041,0 -0.075,0.034 -0.075,0.075 v 44.85 c 0,0.041 0.034,0.075 0.075,0.075 h 44.85 c 0.041,0 0.075,-0.034 0.075,-0.075 z M 434.925,540 h -14.85 C 420.034,540 420,539.966 420,539.925 v -14.85 c 0,-0.041 0.034,-0.075 0.075,-0.075 h 14.85 c 0.041,0 0.075,0.034 0.075,0.075 v 14.85 c 0,0.041 -0.034,0.075 -0.075,0.075 z m -195,0 h -29.85 C 210.034,540 210,539.966 210,539.925 v -44.85 c 0,-0.041 0.034,-0.075 0.075,-0.075 h 29.85 c 0.041,0 0.075,0.034 0.075,0.075 v 44.85 c 0,0.041 -0.034,0.075 -0.075,0.075 z m 285,-15 h -14.85 C 510.034,525 510,524.966 510,524.925 v -14.85 c 0,-0.041 0.034,-0.075 0.075,-0.075 h 14.85 c 0.041,0 0.075,0.034 0.075,0.075 v 14.85 c 0,0.041 -0.034,0.075 -0.075,0.075 z m -165,-15 h -14.85 C 345.034,510 345,509.966 345,509.925 v -14.85 c 0,-0.041 0.034,-0.075 0.075,-0.075 h 14.85 c 0.041,0 0.075,0.034 0.075,0.075 v 14.85 c 0,0.041 -0.034,0.075 -0.075,0.075 z m -165,0 h -14.85 C 180.034,510 180,509.966 180,509.925 v -14.85 C 180,495.034 179.966,495 179.925,495 h -29.85 C 150.034,495 150,494.966 150,494.925 v -14.85 c 0,-0.041 0.034,-0.075 0.075,-0.075 h 44.85 c 0.041,0 0.075,-0.034 0.075,-0.075 v -14.85 c 0,-0.041 0.034,-0.075 0.075,-0.075 h 14.85 c 0.041,0 0.075,-0.034 0.075,-0.075 v -14.85 c 0,-0.041 0.034,-0.075 0.075,-0.075 h 14.85 c 0.041,0 0.075,0.034 0.075,0.075 v 29.85 c 0,0.041 -0.034,0.075 -0.075,0.075 h -14.85 c -0.041,0 -0.075,0.034 -0.075,0.075 v 14.85 c 0,0.041 -0.034,0.075 -0.075,0.075 h -14.85 c -0.041,0 -0.075,0.034 -0.075,0.075 v 14.85 c 0,0.041 -0.034,0.075 -0.075,0.075 z m 195,-15 h -29.85 C 360.034,495 360,494.966 360,494.925 v -14.85 c 0,-0.041 0.034,-0.075 0.075,-0.075 h 14.85 c 0.041,0 0.075,-0.034 0.075,-0.075 v -14.85 c 0,-0.041 0.034,-0.075 0.075,-0.075 h 14.85 c 0.041,0 0.075,0.034 0.075,0.075 v 29.85 c 0,0.041 -0.034,0.075 -0.075,0.075 z m -120,0 h -29.85 C 240.034,495 240,494.966 240,494.925 v -14.85 c 0,-0.041 0.034,-0.075 0.075,-0.075 h 29.85 c 0.041,0 0.075,0.034 0.075,0.075 v 14.85 c 0,0.041 -0.034,0.075 -0.075,0.075 z m -150,0 h -14.85 C 105.034,495 105,494.966 105,494.925 v -44.85 c 0,-0.041 0.034,-0.075 0.075,-0.075 h 29.85 c 0.041,0 0.075,0.034 0.075,0.075 v 14.85 c 0,0.041 -0.034,0.075 -0.075,0.075 h -14.85 c -0.041,0 -0.075,0.034 -0.075,0.075 v 29.85 c 0,0.041 -0.034,0.075 -0.075,0.075 z m -45,0 H 60.075 C 60.0336,495 60,494.966 60,494.925 v -74.85 C 60,420.034 60.0336,420 60.075,420 h 14.85 c 0.0414,0 0.075,0.034 0.075,0.075 v 14.85 c 0,0.041 0.0336,0.075 0.075,0.075 h 14.85 C 89.9664,435 90,434.966 90,434.925 v -14.85 C 90,420.034 89.9664,420 89.925,420 H 75.075 C 75.0336,420 75,419.966 75,419.925 v -14.85 C 75,405.034 74.9664,405 74.925,405 H 60.075 C 60.0336,405 60,404.966 60,404.925 v -14.85 C 60,390.034 60.0336,390 60.075,390 h 14.85 C 74.9664,390 75,389.966 75,389.925 v -44.85 C 75,345.034 75.0336,345 75.075,345 h 14.85 C 89.9664,345 90,344.966 90,344.925 v -14.85 C 90,330.034 90.0336,330 90.075,330 h 44.85 c 0.041,0 0.075,0.034 0.075,0.075 v 14.85 c 0,0.041 0.034,0.075 0.075,0.075 h 14.85 c 0.041,0 0.075,0.034 0.075,0.075 v 14.85 c 0,0.041 0.034,0.075 0.075,0.075 h 29.85 c 0.041,0 0.075,0.034 0.075,0.075 v 14.85 c 0,0.041 0.034,0.075 0.075,0.075 h 14.85 c 0.041,0 0.075,0.034 0.075,0.075 v 44.85 c 0,0.041 -0.034,0.075 -0.075,0.075 h -29.85 C 165.034,420 165,419.966 165,419.925 v -14.85 c 0,-0.041 0.034,-0.075 0.075,-0.075 h 14.85 c 0.041,0 0.075,-0.034 0.075,-0.075 v -14.85 C 180,390.034 179.966,390 179.925,390 h -14.85 C 165.034,390 165,389.966 165,389.925 v -14.85 C 165,375.034 164.966,375 164.925,375 h -14.85 c -0.041,0 -0.075,0.034 -0.075,0.075 v 14.85 c 0,0.041 -0.034,0.075 -0.075,0.075 h -14.85 C 135.034,390 135,389.966 135,389.925 v -29.85 C 135,360.034 134.966,360 134.925,360 h -14.85 c -0.041,0 -0.075,0.034 -0.075,0.075 v 29.85 c 0,0.041 -0.034,0.075 -0.075,0.075 h -14.85 C 105.034,390 105,389.966 105,389.925 v -14.85 C 105,375.034 104.966,375 104.925,375 H 90.075 C 90.0336,375 90,375.034 90,375.075 v 29.85 c 0,0.041 0.0336,0.075 0.075,0.075 h 29.85 c 0.041,0 0.075,-0.034 0.075,-0.075 v -14.85 c 0,-0.041 0.034,-0.075 0.075,-0.075 h 14.85 c 0.041,0 0.075,0.034 0.075,0.075 v 14.85 c 0,0.041 0.034,0.075 0.075,0.075 h 14.85 c 0.041,0 0.075,0.034 0.075,0.075 v 14.85 c 0,0.041 -0.034,0.075 -0.075,0.075 h -44.85 c -0.041,0 -0.075,0.034 -0.075,0.075 v 29.85 c 0,0.041 -0.034,0.075 -0.075,0.075 H 75.075 C 75.0336,450 75,450.034 75,450.075 v 44.85 C 75,494.966 74.9664,495 74.925,495 Z M 450,479.925 v -14.85 C 450,465.034 449.966,465 449.925,465 h -29.85 c -0.041,0 -0.075,0.034 -0.075,0.075 v 14.85 c 0,0.041 0.034,0.075 0.075,0.075 h 29.85 c 0.041,0 0.075,-0.034 0.075,-0.075 z M 614.925,465 h -14.85 C 600.034,465 600,464.966 600,464.925 v -14.85 c 0,-0.041 0.034,-0.075 0.075,-0.075 h 14.85 c 0.041,0 0.075,0.034 0.075,0.075 v 14.85 c 0,0.041 -0.034,0.075 -0.075,0.075 z m -30,0 h -29.85 C 555.034,465 555,464.966 555,464.925 v -14.85 c 0,-0.041 0.034,-0.075 0.075,-0.075 h 14.85 c 0.041,0 0.075,-0.034 0.075,-0.075 v -29.85 c 0,-0.041 0.034,-0.075 0.075,-0.075 h 14.85 c 0.041,0 0.075,0.034 0.075,0.075 v 44.85 c 0,0.041 -0.034,0.075 -0.075,0.075 z m -60,0 h -14.85 C 510.034,465 510,464.966 510,464.925 v -14.85 c 0,-0.041 0.034,-0.075 0.075,-0.075 h 14.85 c 0.041,0 0.075,0.034 0.075,0.075 v 14.85 c 0,0.041 -0.034,0.075 -0.075,0.075 z m -330,0 h -44.85 C 150.034,465 150,464.966 150,464.925 v -14.85 c 0,-0.041 0.034,-0.075 0.075,-0.075 h 14.85 c 0.041,0 0.075,-0.034 0.075,-0.075 v -14.85 c 0,-0.041 0.034,-0.075 0.075,-0.075 h 29.85 c 0.041,0 0.075,0.034 0.075,0.075 v 29.85 c 0,0.041 -0.034,0.075 -0.075,0.075 z m 345,-15 h -14.85 C 525.034,450 525,449.966 525,449.925 v -14.85 C 525,435.034 524.966,435 524.925,435 h -29.85 C 495.034,435 495,434.966 495,434.925 v -44.85 c 0,-0.041 0.034,-0.075 0.075,-0.075 h 14.85 c 0.041,0 0.075,0.034 0.075,0.075 v 14.85 c 0,0.041 0.034,0.075 0.075,0.075 h 29.85 c 0.041,0 0.075,0.034 0.075,0.075 v 14.85 c 0,0.041 0.034,0.075 0.075,0.075 h 14.85 c 0.041,0 0.075,0.034 0.075,0.075 v 14.85 c 0,0.041 -0.034,0.075 -0.075,0.075 h -14.85 c -0.041,0 -0.075,0.034 -0.075,0.075 v 14.85 c 0,0.041 -0.034,0.075 -0.075,0.075 z m -135,0 h -14.85 C 390.034,450 390,449.966 390,449.925 v -29.85 c 0,-0.041 0.034,-0.075 0.075,-0.075 h 14.85 c 0.041,0 0.075,-0.034 0.075,-0.075 v -14.85 c 0,-0.041 0.034,-0.075 0.075,-0.075 h 14.85 c 0.041,0 0.075,0.034 0.075,0.075 v 14.85 c 0,0.041 0.034,0.075 0.075,0.075 h 14.85 c 0.041,0 0.075,0.034 0.075,0.075 v 14.85 c 0,0.041 -0.034,0.075 -0.075,0.075 h -29.85 c -0.041,0 -0.075,0.034 -0.075,0.075 v 14.85 c 0,0.041 -0.034,0.075 -0.075,0.075 z m -150,0 h -29.85 C 225.034,450 225,449.966 225,449.925 v -14.85 c 0,-0.041 0.034,-0.075 0.075,-0.075 h 29.85 c 0.041,0 0.075,0.034 0.075,0.075 v 14.85 c 0,0.041 -0.034,0.075 -0.075,0.075 z m -105,0 h -14.85 C 135.034,450 135,449.966 135,449.925 v -14.85 c 0,-0.041 0.034,-0.075 0.075,-0.075 h 14.85 c 0.041,0 0.075,0.034 0.075,0.075 v 14.85 c 0,0.041 -0.034,0.075 -0.075,0.075 z m 465,-15 h -14.85 C 600.034,435 600,434.966 600,434.925 v -14.85 c 0,-0.041 0.034,-0.075 0.075,-0.075 h 14.85 c 0.041,0 0.075,0.034 0.075,0.075 v 14.85 c 0,0.041 -0.034,0.075 -0.075,0.075 z m -150,0 h -14.85 C 450.034,435 450,434.966 450,434.925 v -14.85 c 0,-0.041 0.034,-0.075 0.075,-0.075 h 14.85 c 0.041,0 0.075,0.034 0.075,0.075 v 14.85 c 0,0.041 -0.034,0.075 -0.075,0.075 z m -240,0 h -14.85 C 210.034,435 210,434.966 210,434.925 v -29.85 c 0,-0.041 0.034,-0.075 0.075,-0.075 h 14.85 c 0.041,0 0.075,0.034 0.075,0.075 v 29.85 c 0,0.041 -0.034,0.075 -0.075,0.075 z m -60,0 h -14.85 C 150.034,435 150,434.966 150,434.925 v -14.85 c 0,-0.041 0.034,-0.075 0.075,-0.075 h 14.85 c 0.041,0 0.075,0.034 0.075,0.075 v 14.85 c 0,0.041 -0.034,0.075 -0.075,0.075 z m 435,-15 h -14.85 C 585.034,420 585,419.966 585,419.925 v -44.85 C 585,375.034 584.966,375 584.925,375 h -14.85 c -0.041,0 -0.075,0.034 -0.075,0.075 v 14.85 c 0,0.041 -0.034,0.075 -0.075,0.075 h -14.85 C 555.034,390 555,389.966 555,389.925 v -14.85 C 555,375.034 554.966,375 554.925,375 h -14.85 c -0.041,0 -0.075,0.034 -0.075,0.075 v 14.85 c 0,0.041 -0.034,0.075 -0.075,0.075 h -14.85 C 525.034,390 525,389.966 525,389.925 v -14.85 C 525,375.034 524.966,375 524.925,375 h -29.85 C 495.034,375 495,374.966 495,374.925 v -44.85 c 0,-0.041 0.034,-0.075 0.075,-0.075 h 14.85 c 0.041,0 0.075,0.034 0.075,0.075 v 29.85 c 0,0.041 0.034,0.075 0.075,0.075 h 29.85 c 0.041,0 0.075,-0.034 0.075,-0.075 v -14.85 c 0,-0.041 0.034,-0.075 0.075,-0.075 h 14.85 c 0.041,0 0.075,0.034 0.075,0.075 v 14.85 c 0,0.041 0.034,0.075 0.075,0.075 h 29.85 c 0.041,0 0.075,-0.034 0.075,-0.075 v -14.85 C 585,345.034 584.966,345 584.925,345 h -29.85 C 555.034,345 555,344.966 555,344.925 v -14.85 c 0,-0.041 0.034,-0.075 0.075,-0.075 h 14.85 c 0.041,0 0.075,-0.034 0.075,-0.075 v -29.85 c 0,-0.041 0.034,-0.075 0.075,-0.075 h 14.85 c 0.041,0 0.075,-0.034 0.075,-0.075 v -14.85 c 0,-0.041 0.034,-0.075 0.075,-0.075 h 14.85 c 0.041,0 0.075,0.034 0.075,0.075 v 14.85 c 0,0.041 0.034,0.075 0.075,0.075 h 14.85 c 0.041,0 0.075,0.034 0.075,0.075 v 14.85 c 0,0.041 -0.034,0.075 -0.075,0.075 h -29.85 c -0.041,0 -0.075,0.034 -0.075,0.075 v 14.85 c 0,0.041 0.034,0.075 0.075,0.075 h 29.85 c 0.041,0 0.075,0.034 0.075,0.075 v 14.85 c 0,0.041 -0.034,0.075 -0.075,0.075 h -14.85 c -0.041,0 -0.075,0.034 -0.075,0.075 v 14.85 c 0,0.041 0.034,0.075 0.075,0.075 h 14.85 c 0.041,0 0.075,0.034 0.075,0.075 v 14.85 c 0,0.041 -0.034,0.075 -0.075,0.075 h -14.85 c -0.041,0 -0.075,0.034 -0.075,0.075 v 14.85 c 0,0.041 0.034,0.075 0.075,0.075 h 14.85 c 0.041,0 0.075,0.034 0.075,0.075 v 14.85 c 0,0.041 -0.034,0.075 -0.075,0.075 h -14.85 c -0.041,0 -0.075,0.034 -0.075,0.075 v 14.85 c 0,0.041 -0.034,0.075 -0.075,0.075 z m -150,0 h -14.85 C 435.034,420 435,419.966 435,419.925 v -14.85 C 435,405.034 434.966,405 434.925,405 h -14.85 C 420.034,405 420,404.966 420,404.925 v -14.85 c 0,-0.041 0.034,-0.075 0.075,-0.075 h 14.85 c 0.041,0 0.075,-0.034 0.075,-0.075 v -14.85 C 435,375.034 434.966,375 434.925,375 h -44.85 C 390.034,375 390,374.966 390,374.925 v -29.85 C 390,345.034 389.966,345 389.925,345 h -14.85 C 375.034,345 375,344.966 375,344.925 v -29.85 c 0,-0.041 0.034,-0.075 0.075,-0.075 h 14.85 c 0.041,0 0.075,-0.034 0.075,-0.075 v -14.85 C 390,300.034 389.966,300 389.925,300 h -29.85 c -0.041,0 -0.075,0.034 -0.075,0.075 v 14.85 c 0,0.041 -0.034,0.075 -0.075,0.075 h -14.85 C 345.034,315 345,314.966 345,314.925 v -14.85 C 345,300.034 344.966,300 344.925,300 h -29.85 C 315.034,300 315,299.966 315,299.925 v -14.85 c 0,-0.041 0.034,-0.075 0.075,-0.075 h 29.85 c 0.041,0 0.075,-0.034 0.075,-0.075 v -14.85 c 0,-0.041 0.034,-0.075 0.075,-0.075 h 14.85 c 0.041,0 0.075,0.034 0.075,0.075 v 14.85 c 0,0.041 0.034,0.075 0.075,0.075 h 29.85 c 0.041,0 0.075,-0.034 0.075,-0.075 v -14.85 C 390,270.034 389.966,270 389.925,270 h -29.85 C 360.034,270 360,269.966 360,269.925 v -29.85 c 0,-0.041 0.034,-0.075 0.075,-0.075 h 14.85 c 0.041,0 0.075,0.034 0.075,0.075 v 14.85 c 0,0.041 0.034,0.075 0.075,0.075 h 29.85 c 0.041,0 0.075,-0.034 0.075,-0.075 v -14.85 c 0,-0.041 0.034,-0.075 0.075,-0.075 h 44.85 c 0.041,0 0.075,-0.034 0.075,-0.075 v -14.85 C 450,225.034 449.966,225 449.925,225 h -29.85 C 420.034,225 420,224.966 420,224.925 v -14.85 c 0,-0.041 0.034,-0.075 0.075,-0.075 h 14.85 c 0.041,0 0.075,-0.034 0.075,-0.075 v -14.85 c 0,-0.041 0.034,-0.075 0.075,-0.075 h 59.85 c 0.041,0 0.075,0.034 0.075,0.075 v 14.85 c 0,0.041 -0.034,0.075 -0.075,0.075 h -29.85 c -0.041,0 -0.075,0.034 -0.075,0.075 v 59.85 c 0,0.041 -0.034,0.075 -0.075,0.075 h -14.85 C 450.034,270 450,269.966 450,269.925 v -14.85 C 450,255.034 449.966,255 449.925,255 h -29.85 c -0.041,0 -0.075,0.034 -0.075,0.075 v 14.85 c 0,0.041 -0.034,0.075 -0.075,0.075 h -14.85 c -0.041,0 -0.075,0.034 -0.075,0.075 v 59.85 c 0,0.041 0.034,0.075 0.075,0.075 h 14.85 c 0.041,0 0.075,0.034 0.075,0.075 v 29.85 c 0,0.041 0.034,0.075 0.075,0.075 h 59.85 c 0.041,0 0.075,0.034 0.075,0.075 v 14.85 c 0,0.041 -0.034,0.075 -0.075,0.075 h -29.85 c -0.041,0 -0.075,0.034 -0.075,0.075 v 14.85 c 0,0.041 0.034,0.075 0.075,0.075 h 29.85 c 0.041,0 0.075,0.034 0.075,0.075 v 14.85 c 0,0.041 -0.034,0.075 -0.075,0.075 h -29.85 c -0.041,0 -0.075,0.034 -0.075,0.075 v 14.85 c 0,0.041 -0.034,0.075 -0.075,0.075 z m -75,0 h -29.85 C 345.034,420 345,419.966 345,419.925 v -59.85 c 0,-0.041 0.034,-0.075 0.075,-0.075 h 29.85 c 0.041,0 0.075,0.034 0.075,0.075 v 14.85 c 0,0.041 -0.034,0.075 -0.075,0.075 h -14.85 c -0.041,0 -0.075,0.034 -0.075,0.075 v 14.85 c 0,0.041 0.034,0.075 0.075,0.075 h 14.85 c 0.041,0 0.075,-0.034 0.075,-0.075 v -14.85 c 0,-0.041 0.034,-0.075 0.075,-0.075 h 14.85 c 0.041,0 0.075,0.034 0.075,0.075 v 29.85 c 0,0.041 -0.034,0.075 -0.075,0.075 h -14.85 c -0.041,0 -0.075,0.034 -0.075,0.075 v 14.85 c 0,0.041 -0.034,0.075 -0.075,0.075 z m -45,0 h -14.85 C 315.034,420 315,419.966 315,419.925 v -29.85 c 0,-0.041 0.034,-0.075 0.075,-0.075 h 14.85 c 0.041,0 0.075,0.034 0.075,0.075 v 29.85 c 0,0.041 -0.034,0.075 -0.075,0.075 z m -165,-15 h -14.85 C 150.034,405 150,404.966 150,404.925 v -14.85 c 0,-0.041 0.034,-0.075 0.075,-0.075 h 14.85 c 0.041,0 0.075,0.034 0.075,0.075 v 14.85 c 0,0.041 -0.034,0.075 -0.075,0.075 z m 60,-15 h -14.85 C 210.034,390 210,389.966 210,389.925 v -14.85 c 0,-0.041 0.034,-0.075 0.075,-0.075 h 14.85 c 0.041,0 0.075,0.034 0.075,0.075 v 14.85 c 0,0.041 -0.034,0.075 -0.075,0.075 z m 45,-15 h -14.85 C 255.034,375 255,374.966 255,374.925 v -14.85 c 0,-0.041 0.034,-0.075 0.075,-0.075 h 14.85 c 0.041,0 0.075,0.034 0.075,0.075 v 14.85 c 0,0.041 -0.034,0.075 -0.075,0.075 z m -30,0 h -14.85 C 225.034,375 225,374.966 225,374.925 v -14.85 c 0,-0.041 0.034,-0.075 0.075,-0.075 h 14.85 c 0.041,0 0.075,0.034 0.075,0.075 v 14.85 c 0,0.041 -0.034,0.075 -0.075,0.075 z m 105,-15 h -14.85 C 330.034,360 330,359.966 330,359.925 v -29.85 c 0,-0.041 0.034,-0.075 0.075,-0.075 h 29.85 c 0.041,0 0.075,0.034 0.075,0.075 v 14.85 c 0,0.041 -0.034,0.075 -0.075,0.075 h -14.85 c -0.041,0 -0.075,0.034 -0.075,0.075 v 14.85 c 0,0.041 -0.034,0.075 -0.075,0.075 z m -60,0 h -14.85 C 270.034,360 270,359.966 270,359.925 v -14.85 C 270,345.034 269.966,345 269.925,345 h -14.85 C 255.034,345 255,344.966 255,344.925 v -14.85 c 0,-0.041 0.034,-0.075 0.075,-0.075 h 14.85 c 0.041,0 0.075,-0.034 0.075,-0.075 v -14.85 c 0,-0.041 0.034,-0.075 0.075,-0.075 h 14.85 c 0.041,0 0.075,0.034 0.075,0.075 v 14.85 c 0,0.041 0.034,0.075 0.075,0.075 h 14.85 c 0.041,0 0.075,0.034 0.075,0.075 v 14.85 c 0,0.041 -0.034,0.075 -0.075,0.075 h -14.85 c -0.041,0 -0.075,0.034 -0.075,0.075 v 14.85 c 0,0.041 -0.034,0.075 -0.075,0.075 z m -60,0 h -44.85 C 180.034,360 180,359.966 180,359.925 v -14.85 c 0,-0.041 0.034,-0.075 0.075,-0.075 h 14.85 c 0.041,0 0.075,-0.034 0.075,-0.075 v -14.85 c 0,-0.041 0.034,-0.075 0.075,-0.075 h 14.85 c 0.041,0 0.075,0.034 0.075,0.075 v 14.85 c 0,0.041 0.034,0.075 0.075,0.075 h 14.85 c 0.041,0 0.075,0.034 0.075,0.075 v 14.85 c 0,0.041 -0.034,0.075 -0.075,0.075 z m 315,-15 h -14.85 C 525.034,345 525,344.966 525,344.925 v -29.85 c 0,-0.041 0.034,-0.075 0.075,-0.075 h 14.85 c 0.041,0 0.075,0.034 0.075,0.075 v 29.85 c 0,0.041 -0.034,0.075 -0.075,0.075 z m -60,0 h -14.85 C 465.034,345 465,344.966 465,344.925 v -14.85 c 0,-0.041 0.034,-0.075 0.075,-0.075 h 14.85 c 0.041,0 0.075,0.034 0.075,0.075 v 14.85 c 0,0.041 -0.034,0.075 -0.075,0.075 z m -240,0 h -14.85 C 225.034,345 225,344.966 225,344.925 v -14.85 C 225,330.034 224.966,330 224.925,330 h -14.85 C 210.034,330 210,329.966 210,329.925 v -14.85 c 0,-0.041 0.034,-0.075 0.075,-0.075 h 14.85 c 0.041,0 0.075,-0.034 0.075,-0.075 v -14.85 c 0,-0.041 0.034,-0.075 0.075,-0.075 h 14.85 c 0.041,0 0.075,-0.034 0.075,-0.075 v -29.85 c 0,-0.041 0.034,-0.075 0.075,-0.075 h 14.85 c 0.041,0 0.075,-0.034 0.075,-0.075 v -14.85 c 0,-0.041 0.034,-0.075 0.075,-0.075 h 29.85 c 0.041,0 0.075,0.034 0.075,0.075 v 14.85 c 0,0.041 0.034,0.075 0.075,0.075 h 14.85 c 0.041,0 0.075,0.034 0.075,0.075 v 29.85 c 0,0.041 0.034,0.075 0.075,0.075 h 14.85 c 0.041,0 0.075,0.034 0.075,0.075 v 29.85 c 0,0.041 -0.034,0.075 -0.075,0.075 h -14.85 C 300.034,330 300,329.966 300,329.925 v -14.85 C 300,315.034 299.966,315 299.925,315 h -14.85 C 285.034,315 285,314.966 285,314.925 v -14.85 C 285,300.034 284.966,300 284.925,300 h -14.85 c -0.041,0 -0.075,0.034 -0.075,0.075 v 14.85 c 0,0.041 -0.034,0.075 -0.075,0.075 h -14.85 c -0.041,0 -0.075,0.034 -0.075,0.075 v 14.85 c 0,0.041 -0.034,0.075 -0.075,0.075 h -14.85 c -0.041,0 -0.075,0.034 -0.075,0.075 v 14.85 c 0,0.041 -0.034,0.075 -0.075,0.075 z m -75,0 h -14.85 C 150.034,345 150,344.966 150,344.925 v -14.85 c 0,-0.041 0.034,-0.075 0.075,-0.075 h 14.85 c 0.041,0 0.075,0.034 0.075,0.075 v 14.85 c 0,0.041 -0.034,0.075 -0.075,0.075 z m 30,-15 h -14.85 C 180.034,330 180,329.966 180,329.925 v -14.85 c 0,-0.041 0.034,-0.075 0.075,-0.075 h 14.85 c 0.041,0 0.075,0.034 0.075,0.075 v 14.85 c 0,0.041 -0.034,0.075 -0.075,0.075 z m -45,0 h -14.85 C 135.034,330 135,329.966 135,329.925 v -14.85 c 0,-0.041 0.034,-0.075 0.075,-0.075 h 14.85 c 0.041,0 0.075,0.034 0.075,0.075 v 14.85 c 0,0.041 -0.034,0.075 -0.075,0.075 z m -75,0 H 60.075 C 60.0336,330 60,329.966 60,329.925 v -59.85 C 60,270.034 60.0336,270 60.075,270 h 14.85 c 0.0414,0 0.075,0.034 0.075,0.075 v 14.85 c 0,0.041 0.0336,0.075 0.075,0.075 h 29.85 c 0.041,0 0.075,0.034 0.075,0.075 v 29.85 c 0,0.041 -0.034,0.075 -0.075,0.075 H 90.075 C 90.0336,315 90,314.966 90,314.925 v -14.85 C 90,300.034 89.9664,300 89.925,300 H 75.075 C 75.0336,300 75,300.034 75,300.075 v 29.85 C 75,329.966 74.9664,330 74.925,330 Z m 480,-15 h -14.85 C 540.034,315 540,314.966 540,314.925 v -14.85 c 0,-0.041 0.034,-0.075 0.075,-0.075 h 14.85 c 0.041,0 0.075,0.034 0.075,0.075 v 14.85 c 0,0.041 -0.034,0.075 -0.075,0.075 z m -30,0 h -29.85 C 495.034,315 495,314.966 495,314.925 v -14.85 c 0,-0.041 0.034,-0.075 0.075,-0.075 h 29.85 c 0.041,0 0.075,0.034 0.075,0.075 v 14.85 c 0,0.041 -0.034,0.075 -0.075,0.075 z m -45,0 h -44.85 C 435.034,315 435,314.966 435,314.925 v -14.85 c 0,-0.041 0.034,-0.075 0.075,-0.075 h 44.85 c 0.041,0 0.075,0.034 0.075,0.075 v 14.85 c 0,0.041 -0.034,0.075 -0.075,0.075 z m -270,0 h -14.85 C 195.034,315 195,314.966 195,314.925 v -14.85 C 195,300.034 194.966,300 194.925,300 h -14.85 c -0.041,0 -0.075,0.034 -0.075,0.075 v 14.85 c 0,0.041 -0.034,0.075 -0.075,0.075 h -29.85 C 150.034,315 150,314.966 150,314.925 v -14.85 c 0,-0.041 0.034,-0.075 0.075,-0.075 h 14.85 c 0.041,0 0.075,-0.034 0.075,-0.075 v -14.85 c 0,-0.041 0.034,-0.075 0.075,-0.075 h 29.85 c 0.041,0 0.075,-0.034 0.075,-0.075 v -14.85 c 0,-0.041 0.034,-0.075 0.075,-0.075 h 14.85 c 0.041,0 0.075,0.034 0.075,0.075 v 14.85 c 0,0.041 0.034,0.075 0.075,0.075 h 14.85 c 0.041,0 0.075,0.034 0.075,0.075 v 14.85 c 0,0.041 -0.034,0.075 -0.075,0.075 h -14.85 c -0.041,0 -0.075,0.034 -0.075,0.075 v 14.85 c 0,0.041 -0.034,0.075 -0.075,0.075 z m -75,0 h -14.85 C 120.034,315 120,314.966 120,314.925 v -14.85 c 0,-0.041 0.034,-0.075 0.075,-0.075 h 14.85 c 0.041,0 0.075,0.034 0.075,0.075 v 14.85 c 0,0.041 -0.034,0.075 -0.075,0.075 z m 405,-15 h -14.85 C 525.034,300 525,299.966 525,299.925 v -14.85 c 0,-0.041 0.034,-0.075 0.075,-0.075 h 14.85 c 0.041,0 0.075,0.034 0.075,0.075 v 14.85 c 0,0.041 -0.034,0.075 -0.075,0.075 z m -390,0 h -14.85 C 135.034,300 135,299.966 135,299.925 v -14.85 C 135,285.034 134.966,285 134.925,285 h -14.85 C 120.034,285 120,284.966 120,284.925 v -14.85 C 120,270.034 119.966,270 119.925,270 h -14.85 C 105.034,270 105,269.966 105,269.925 v -44.85 c 0,-0.041 0.034,-0.075 0.075,-0.075 h 14.85 c 0.041,0 0.075,0.034 0.075,0.075 v 29.85 c 0,0.041 0.034,0.075 0.075,0.075 h 14.85 c 0.041,0 0.075,-0.034 0.075,-0.075 v -29.85 c 0,-0.041 0.034,-0.075 0.075,-0.075 h 14.85 c 0.041,0 0.075,0.034 0.075,0.075 v 14.85 c 0,0.041 0.034,0.075 0.075,0.075 h 14.85 c 0.041,0 0.075,0.034 0.075,0.075 v 14.85 c 0,0.041 -0.034,0.075 -0.075,0.075 h -14.85 c -0.041,0 -0.075,0.034 -0.075,0.075 v 14.85 c 0,0.041 0.034,0.075 0.075,0.075 h 14.85 c 0.041,0 0.075,0.034 0.075,0.075 v 14.85 c 0,0.041 -0.034,0.075 -0.075,0.075 h -14.85 c -0.041,0 -0.075,0.034 -0.075,0.075 v 14.85 c 0,0.041 -0.034,0.075 -0.075,0.075 z m 465,-15 h -14.85 C 600.034,285 600,284.966 600,284.925 v -14.85 c 0,-0.041 0.034,-0.075 0.075,-0.075 h 14.85 c 0.041,0 0.075,0.034 0.075,0.075 v 14.85 c 0,0.041 -0.034,0.075 -0.075,0.075 z m -45,0 h -14.85 C 555.034,285 555,284.966 555,284.925 v -59.85 c 0,-0.041 0.034,-0.075 0.075,-0.075 h 14.85 c 0.041,0 0.075,0.034 0.075,0.075 v 14.85 c 0,0.041 0.034,0.075 0.075,0.075 h 14.85 c 0.041,0 0.075,-0.034 0.075,-0.075 v -14.85 C 585,225.034 584.966,225 584.925,225 h -14.85 C 570.034,225 570,224.966 570,224.925 v -14.85 c 0,-0.041 0.034,-0.075 0.075,-0.075 h 44.85 c 0.041,0 0.075,0.034 0.075,0.075 v 14.85 c 0,0.041 -0.034,0.075 -0.075,0.075 h -14.85 c -0.041,0 -0.075,0.034 -0.075,0.075 v 29.85 c 0,0.041 -0.034,0.075 -0.075,0.075 h -14.85 c -0.041,0 -0.075,0.034 -0.075,0.075 v 14.85 c 0,0.041 -0.034,0.075 -0.075,0.075 h -14.85 c -0.041,0 -0.075,0.034 -0.075,0.075 v 14.85 c 0,0.041 -0.034,0.075 -0.075,0.075 z m -60,0 h -14.85 C 495.034,285 495,284.966 495,284.925 v -14.85 C 495,270.034 494.966,270 494.925,270 h -14.85 C 480.034,270 480,269.966 480,269.925 v -14.85 c 0,-0.041 0.034,-0.075 0.075,-0.075 h 14.85 c 0.041,0 0.075,-0.034 0.075,-0.075 v -14.85 c 0,-0.041 0.034,-0.075 0.075,-0.075 h 14.85 c 0.041,0 0.075,-0.034 0.075,-0.075 v -29.85 c 0,-0.041 0.034,-0.075 0.075,-0.075 h 14.85 c 0.041,0 0.075,0.034 0.075,0.075 v 14.85 c 0,0.041 0.034,0.075 0.075,0.075 h 14.85 c 0.041,0 0.075,0.034 0.075,0.075 v 44.85 c 0,0.041 -0.034,0.075 -0.075,0.075 h -14.85 C 525.034,270 525,269.966 525,269.925 v -14.85 C 525,255.034 524.966,255 524.925,255 h -14.85 c -0.041,0 -0.075,0.034 -0.075,0.075 v 29.85 c 0,0.041 -0.034,0.075 -0.075,0.075 z m -30,0 h -14.85 C 465.034,285 465,284.966 465,284.925 v -14.85 c 0,-0.041 0.034,-0.075 0.075,-0.075 h 14.85 c 0.041,0 0.075,0.034 0.075,0.075 v 14.85 c 0,0.041 -0.034,0.075 -0.075,0.075 z m -30,0 h -29.85 C 420.034,285 420,284.966 420,284.925 v -14.85 c 0,-0.041 0.034,-0.075 0.075,-0.075 h 29.85 c 0.041,0 0.075,0.034 0.075,0.075 v 14.85 c 0,0.041 -0.034,0.075 -0.075,0.075 z m -255,-15 h -29.85 C 165.034,270 165,269.966 165,269.925 v -14.85 c 0,-0.041 0.034,-0.075 0.075,-0.075 h 29.85 c 0.041,0 0.075,0.034 0.075,0.075 v 14.85 c 0,0.041 -0.034,0.075 -0.075,0.075 z m 150,-15 h -14.85 C 330.034,255 330,254.966 330,254.925 v -14.85 c 0,-0.041 0.034,-0.075 0.075,-0.075 h 14.85 c 0.041,0 0.075,0.034 0.075,0.075 v 14.85 c 0,0.041 -0.034,0.075 -0.075,0.075 z m -90,0 h -14.85 C 240.034,255 240,254.966 240,254.925 v -14.85 c 0,-0.041 0.034,-0.075 0.075,-0.075 h 14.85 c 0.041,0 0.075,0.034 0.075,0.075 v 14.85 c 0,0.041 -0.034,0.075 -0.075,0.075 z m -165,0 H 75.075 C 75.0336,255 75,254.966 75,254.925 v -14.85 C 75,240.034 75.0336,240 75.075,240 h 14.85 c 0.0414,0 0.075,0.034 0.075,0.075 v 14.85 C 90,254.966 89.9664,255 89.925,255 Z m 405,-15 h -14.85 C 480.034,240 480,239.966 480,239.925 v -14.85 c 0,-0.041 0.034,-0.075 0.075,-0.075 h 14.85 c 0.041,0 0.075,0.034 0.075,0.075 v 14.85 c 0,0.041 -0.034,0.075 -0.075,0.075 z m -90,0 h -29.85 C 375.034,240 375,239.966 375,239.925 v -29.85 c 0,-0.041 0.034,-0.075 0.075,-0.075 h 14.85 c 0.041,0 0.075,-0.034 0.075,-0.075 v -14.85 C 390,195.034 389.966,195 389.925,195 h -14.85 C 375.034,195 375,194.966 375,194.925 v -29.85 c 0,-0.041 0.034,-0.075 0.075,-0.075 h 14.85 c 0.041,0 0.075,0.034 0.075,0.075 v 14.85 c 0,0.041 0.034,0.075 0.075,0.075 h 14.85 c 0.041,0 0.075,0.034 0.075,0.075 v 59.85 c 0,0.041 -0.034,0.075 -0.075,0.075 z m -45,0 h -14.85 C 345.034,240 345,239.966 345,239.925 v -14.85 c 0,-0.041 0.034,-0.075 0.075,-0.075 h 14.85 c 0.041,0 0.075,0.034 0.075,0.075 v 14.85 c 0,0.041 -0.034,0.075 -0.075,0.075 z m -30,0 h -44.85 C 285.034,240 285,239.966 285,239.925 v -29.85 c 0,-0.041 0.034,-0.075 0.075,-0.075 h 14.85 c 0.041,0 0.075,-0.034 0.075,-0.075 v -14.85 c 0,-0.041 0.034,-0.075 0.075,-0.075 h 29.85 c 0.041,0 0.075,0.034 0.075,0.075 v 14.85 c 0,0.041 -0.034,0.075 -0.075,0.075 h -14.85 c -0.041,0 -0.075,0.034 -0.075,0.075 v 14.85 c 0,0.041 0.034,0.075 0.075,0.075 h 14.85 c 0.041,0 0.075,0.034 0.075,0.075 v 14.85 c 0,0.041 -0.034,0.075 -0.075,0.075 z m -90,0 h -14.85 C 225.034,240 225,239.966 225,239.925 v -14.85 C 225,225.034 224.966,225 224.925,225 h -29.85 c -0.041,0 -0.075,0.034 -0.075,0.075 v 14.85 c 0,0.041 -0.034,0.075 -0.075,0.075 h -14.85 C 180.034,240 180,239.966 180,239.925 v -14.85 C 180,225.034 179.966,225 179.925,225 h -29.85 C 150.034,225 150,224.966 150,224.925 v -14.85 c 0,-0.041 0.034,-0.075 0.075,-0.075 h 14.85 c 0.041,0 0.075,-0.034 0.075,-0.075 v -14.85 c 0,-0.041 0.034,-0.075 0.075,-0.075 h 14.85 c 0.041,0 0.075,-0.034 0.075,-0.075 v -59.85 c 0,-0.041 0.034,-0.075 0.075,-0.075 h 14.85 c 0.041,0 0.075,0.034 0.075,0.075 v 29.85 c 0,0.041 0.034,0.075 0.075,0.075 h 14.85 c 0.041,0 0.075,0.034 0.075,0.075 v 14.85 c 0,0.041 -0.034,0.075 -0.075,0.075 h -14.85 c -0.041,0 -0.075,0.034 -0.075,0.075 v 14.85 c 0,0.041 0.034,0.075 0.075,0.075 h 29.85 c 0.041,0 0.075,-0.034 0.075,-0.075 v -29.85 c 0,-0.041 0.034,-0.075 0.075,-0.075 h 14.85 c 0.041,0 0.075,-0.034 0.075,-0.075 v -14.85 c 0,-0.041 0.034,-0.075 0.075,-0.075 h 14.85 c 0.041,0 0.075,0.034 0.075,0.075 v 29.85 c 0,0.041 0.034,0.075 0.075,0.075 h 14.85 c 0.041,0 0.075,0.034 0.075,0.075 v 14.85 c 0,0.041 -0.034,0.075 -0.075,0.075 h -14.85 c -0.041,0 -0.075,0.034 -0.075,0.075 v 14.85 c 0,0.041 -0.034,0.075 -0.075,0.075 h -14.85 c -0.041,0 -0.075,0.034 -0.075,0.075 v 29.85 c 0,0.041 -0.034,0.075 -0.075,0.075 z m 105,-15 h -14.85 C 330.034,225 330,224.966 330,224.925 v -14.85 c 0,-0.041 0.034,-0.075 0.075,-0.075 h 14.85 c 0.041,0 0.075,0.034 0.075,0.075 v 14.85 c 0,0.041 -0.034,0.075 -0.075,0.075 z m -270,0 H 60.075 C 60.0336,225 60,224.966 60,224.925 v -29.85 C 60,195.034 60.0336,195 60.075,195 h 14.85 c 0.0414,0 0.075,0.034 0.075,0.075 v 29.85 C 75,224.966 74.9664,225 74.925,225 Z m 495,-15 h -14.85 C 555.034,210 555,209.966 555,209.925 v -14.85 c 0,-0.041 0.034,-0.075 0.075,-0.075 h 14.85 c 0.041,0 0.075,0.034 0.075,0.075 v 14.85 c 0,0.041 -0.034,0.075 -0.075,0.075 z m -30,0 h -14.85 C 525.034,210 525,209.966 525,209.925 v -14.85 C 525,195.034 524.966,195 524.925,195 h -29.85 C 495.034,195 495,194.966 495,194.925 v -14.85 c 0,-0.041 0.034,-0.075 0.075,-0.075 h 44.85 c 0.041,0 0.075,0.034 0.075,0.075 v 29.85 c 0,0.041 -0.034,0.075 -0.075,0.075 z m -390,0 h -14.85 C 135.034,210 135,209.966 135,209.925 v -14.85 c 0,-0.041 0.034,-0.075 0.075,-0.075 h 14.85 c 0.041,0 0.075,0.034 0.075,0.075 v 14.85 c 0,0.041 -0.034,0.075 -0.075,0.075 z m -30,0 H 90.075 C 90.0336,210 90,209.966 90,209.925 v -29.85 C 90,180.034 90.0336,180 90.075,180 h 44.85 c 0.041,0 0.075,0.034 0.075,0.075 v 14.85 c 0,0.041 -0.034,0.075 -0.075,0.075 h -14.85 c -0.041,0 -0.075,0.034 -0.075,0.075 v 14.85 c 0,0.041 -0.034,0.075 -0.075,0.075 z m 495,-15 h -44.85 C 570.034,195 570,194.966 570,194.925 v -14.85 c 0,-0.041 0.034,-0.075 0.075,-0.075 h 44.85 c 0.041,0 0.075,0.034 0.075,0.075 v 14.85 c 0,0.041 -0.034,0.075 -0.075,0.075 z m -180,0 h -14.85 C 420.034,195 420,194.966 420,194.925 v -44.85 c 0,-0.041 0.034,-0.075 0.075,-0.075 h 14.85 c 0.041,0 0.075,0.034 0.075,0.075 v 44.85 c 0,0.041 -0.034,0.075 -0.075,0.075 z m -75,0 h -29.85 C 330.034,195 330,194.966 330,194.925 v -74.85 c 0,-0.041 0.034,-0.075 0.075,-0.075 h 14.85 c 0.041,0 0.075,0.034 0.075,0.075 v 14.85 c 0,0.041 0.034,0.075 0.075,0.075 h 14.85 c 0.041,0 0.075,0.034 0.075,0.075 v 14.85 c 0,0.041 -0.034,0.075 -0.075,0.075 h -14.85 c -0.041,0 -0.075,0.034 -0.075,0.075 v 14.85 c 0,0.041 0.034,0.075 0.075,0.075 h 14.85 c 0.041,0 0.075,0.034 0.075,0.075 v 29.85 c 0,0.041 -0.034,0.075 -0.075,0.075 z m -60,0 h -14.85 C 285.034,195 285,194.966 285,194.925 v -14.85 c 0,-0.041 0.034,-0.075 0.075,-0.075 h 14.85 c 0.041,0 0.075,0.034 0.075,0.075 v 14.85 c 0,0.041 -0.034,0.075 -0.075,0.075 z m -135,0 h -14.85 C 150.034,195 150,194.966 150,194.925 v -14.85 c 0,-0.041 0.034,-0.075 0.075,-0.075 h 14.85 c 0.041,0 0.075,0.034 0.075,0.075 v 14.85 c 0,0.041 -0.034,0.075 -0.075,0.075 z m 330,-15 h -14.85 C 480.034,180 480,179.966 480,179.925 v -29.85 C 480,150.034 479.966,150 479.925,150 h -14.85 C 465.034,150 465,149.966 465,149.925 v -14.85 c 0,-0.041 0.034,-0.075 0.075,-0.075 h 29.85 c 0.041,0 0.075,0.034 0.075,0.075 v 44.85 c 0,0.041 -0.034,0.075 -0.075,0.075 z m -30,0 h -14.85 C 450.034,180 450,179.966 450,179.925 v -29.85 c 0,-0.041 0.034,-0.075 0.075,-0.075 h 14.85 c 0.041,0 0.075,0.034 0.075,0.075 v 29.85 c 0,0.041 -0.034,0.075 -0.075,0.075 z m -180,0 h -14.85 C 270.034,180 270,179.966 270,179.925 v -29.85 C 270,150.034 269.966,150 269.925,150 h -14.85 C 255.034,150 255,149.966 255,149.925 v -14.85 C 255,135.034 254.966,135 254.925,135 h -14.85 C 240.034,135 240,134.966 240,134.925 v -14.85 c 0,-0.041 0.034,-0.075 0.075,-0.075 h 29.85 c 0.041,0 0.075,0.034 0.075,0.075 v 14.85 c 0,0.041 0.034,0.075 0.075,0.075 h 14.85 c 0.041,0 0.075,0.034 0.075,0.075 v 44.85 c 0,0.041 -0.034,0.075 -0.075,0.075 z m 330,-15 H 510.075 C 510.034,165 510,164.966 510,164.925 V 60.075 C 510,60.0336 510.034,60 510.075,60 h 104.85 c 0.041,0 0.075,0.0336 0.075,0.075 v 104.85 c 0,0.041 -0.034,0.075 -0.075,0.075 z m -210,0 h -14.85 C 390.034,165 390,164.966 390,164.925 v -14.85 C 390,150.034 389.966,150 389.925,150 h -14.85 C 375.034,150 375,149.966 375,149.925 v -14.85 C 375,135.034 374.966,135 374.925,135 h -14.85 C 360.034,135 360,134.966 360,134.925 v -14.85 C 360,120.034 359.966,120 359.925,120 h -14.85 C 345.034,120 345,119.966 345,119.925 v -14.85 C 345,105.034 344.966,105 344.925,105 h -14.85 C 330.034,105 330,104.966 330,104.925 V 75.075 C 330,75.0336 329.966,75 329.925,75 h -14.85 C 315.034,75 315,74.9664 315,74.925 V 60.075 C 315,60.0336 315.034,60 315.075,60 h 29.85 c 0.041,0 0.075,0.0336 0.075,0.075 v 14.85 c 0,0.0414 0.034,0.075 0.075,0.075 h 29.85 c 0.041,0 0.075,0.0336 0.075,0.075 v 29.85 c 0,0.041 0.034,0.075 0.075,0.075 h 14.85 c 0.041,0 0.075,-0.034 0.075,-0.075 V 90.075 C 390,90.0336 390.034,90 390.075,90 h 14.85 C 404.966,90 405,89.9664 405,89.925 V 75.075 C 405,75.0336 404.966,75 404.925,75 h -14.85 C 390.034,75 390,74.9664 390,74.925 V 60.075 C 390,60.0336 390.034,60 390.075,60 h 29.85 c 0.041,0 0.075,0.0336 0.075,0.075 v 14.85 c 0,0.0414 0.034,0.075 0.075,0.075 h 14.85 c 0.041,0 0.075,0.0336 0.075,0.075 v 14.85 C 435,89.9664 434.966,90 434.925,90 h -14.85 C 420.034,90 420,90.0336 420,90.075 v 44.85 c 0,0.041 -0.034,0.075 -0.075,0.075 h -14.85 c -0.041,0 -0.075,0.034 -0.075,0.075 v 29.85 c 0,0.041 -0.034,0.075 -0.075,0.075 z m -30,0 h -14.85 C 360.034,165 360,164.966 360,164.925 v -14.85 c 0,-0.041 0.034,-0.075 0.075,-0.075 h 14.85 c 0.041,0 0.075,0.034 0.075,0.075 v 14.85 c 0,0.041 -0.034,0.075 -0.075,0.075 z m -60,0 h -14.85 C 300.034,165 300,164.966 300,164.925 v -29.85 c 0,-0.041 0.034,-0.075 0.075,-0.075 h 14.85 c 0.041,0 0.075,0.034 0.075,0.075 v 29.85 c 0,0.041 -0.034,0.075 -0.075,0.075 z m -90,0 h -14.85 C 210.034,165 210,164.966 210,164.925 v -29.85 C 210,135.034 209.966,135 209.925,135 h -14.85 C 195.034,135 195,134.966 195,134.925 v -29.85 C 195,105.034 194.966,105 194.925,105 h -14.85 C 180.034,105 180,104.966 180,104.925 V 60.075 C 180,60.0336 180.034,60 180.075,60 h 119.85 c 0.041,0 0.075,0.0336 0.075,0.075 v 14.85 C 300,74.9664 299.966,75 299.925,75 h -14.85 C 285.034,75 285,75.0336 285,75.075 v 14.85 C 285,89.9664 284.966,90 284.925,90 h -44.85 C 240.034,90 240,90.0336 240,90.075 v 29.85 c 0,0.041 -0.034,0.075 -0.075,0.075 h -14.85 C 225.034,120 225,119.966 225,119.925 v -14.85 C 225,105.034 224.966,105 224.925,105 h -14.85 c -0.041,0 -0.075,0.034 -0.075,0.075 v 14.85 c 0,0.041 0.034,0.075 0.075,0.075 h 14.85 c 0.041,0 0.075,0.034 0.075,0.075 v 14.85 c 0,0.041 0.034,0.075 0.075,0.075 h 14.85 c 0.041,0 0.075,0.034 0.075,0.075 v 14.85 c 0,0.041 -0.034,0.075 -0.075,0.075 h -14.85 c -0.041,0 -0.075,0.034 -0.075,0.075 v 14.85 c 0,0.041 -0.034,0.075 -0.075,0.075 z m -60,0 H 60.075 C 60.0336,165 60,164.966 60,164.925 V 60.075 C 60,60.0336 60.0336,60 60.075,60 h 104.85 c 0.041,0 0.075,0.0336 0.075,0.075 v 104.85 c 0,0.041 -0.034,0.075 -0.075,0.075 z M 600,149.925 V 75.075 C 600,75.0336 599.966,75 599.925,75 h -74.85 C 525.034,75 525,75.0336 525,75.075 v 74.85 c 0,0.041 0.034,0.075 0.075,0.075 h 74.85 c 0.041,0 0.075,-0.034 0.075,-0.075 z m -450,0 V 75.075 C 150,75.0336 149.966,75 149.925,75 H 75.075 C 75.0336,75 75,75.0336 75,75.075 v 74.85 c 0,0.041 0.0336,0.075 0.075,0.075 h 74.85 c 0.041,0 0.075,-0.034 0.075,-0.075 z M 584.925,135 h -44.85 C 540.034,135 540,134.966 540,134.925 V 90.075 C 540,90.0336 540.034,90 540.075,90 h 44.85 c 0.041,0 0.075,0.0336 0.075,0.075 v 44.85 c 0,0.041 -0.034,0.075 -0.075,0.075 z m -120,0 h -14.85 C 450.034,135 450,134.966 450,134.925 v -14.85 C 450,120.034 449.966,120 449.925,120 h -14.85 C 435.034,120 435,119.966 435,119.925 v -14.85 c 0,-0.041 0.034,-0.075 0.075,-0.075 h 14.85 c 0.041,0 0.075,-0.034 0.075,-0.075 V 90.075 C 450,90.0336 450.034,90 450.075,90 h 14.85 c 0.041,0 0.075,0.0336 0.075,0.075 v 44.85 c 0,0.041 -0.034,0.075 -0.075,0.075 z m -165,0 h -14.85 C 285.034,135 285,134.966 285,134.925 v -14.85 c 0,-0.041 0.034,-0.075 0.075,-0.075 h 14.85 c 0.041,0 0.075,0.034 0.075,0.075 v 14.85 c 0,0.041 -0.034,0.075 -0.075,0.075 z m -165,0 H 90.075 C 90.0336,135 90,134.966 90,134.925 V 90.075 C 90,90.0336 90.0336,90 90.075,90 h 44.85 c 0.041,0 0.075,0.0336 0.075,0.075 v 44.85 c 0,0.041 -0.034,0.075 -0.075,0.075 z m 180,-15 h -14.85 C 300.034,120 300,119.966 300,119.925 v -14.85 c 0,-0.041 0.034,-0.075 0.075,-0.075 h 14.85 c 0.041,0 0.075,0.034 0.075,0.075 v 14.85 c 0,0.041 -0.034,0.075 -0.075,0.075 z m 180,-15 h -14.85 C 480.034,105 480,104.966 480,104.925 V 90.075 C 480,90.0336 480.034,90 480.075,90 h 14.85 c 0.041,0 0.075,0.0336 0.075,0.075 v 14.85 c 0,0.041 -0.034,0.075 -0.075,0.075 z m -195,0 h -14.85 C 285.034,105 285,104.966 285,104.925 V 90.075 C 285,90.0336 285.034,90 285.075,90 h 14.85 c 0.041,0 0.075,0.0336 0.075,0.075 v 14.85 c 0,0.041 -0.034,0.075 -0.075,0.075 z m 180,-15 h -14.85 C 465.034,90 465,89.9664 465,89.925 V 75.075 C 465,75.0336 465.034,75 465.075,75 h 14.85 c 0.041,0 0.075,0.0336 0.075,0.075 v 14.85 C 480,89.9664 479.966,90 479.925,90 Z M 225,89.925 V 75.075 C 225,75.0336 224.966,75 224.925,75 h -29.85 C 195.034,75 195,75.0336 195,75.075 v 14.85 c 0,0.0414 0.034,0.075 0.075,0.075 h 29.85 C 224.966,90 225,89.9664 225,89.925 Z M 494.925,75 h -14.85 C 480.034,75 480,74.9664 480,74.925 V 60.075 C 480,60.0336 480.034,60 480.075,60 h 14.85 c 0.041,0 0.075,0.0336 0.075,0.075 v 14.85 C 495,74.9664 494.966,75 494.925,75 Z"
         id="path579"
         style="stroke-width:1.55414" />
    </g>
    <g
       style="fill:#000000;stroke:none;stroke-width:1.41355"
       id="g582"
       transform="matrix(0.70743902,0,0,0.70743902,2826.3092,87.407406)">
      <path
         d="m 554.925,555 h -14.85 C 540.034,555 540,554.966 540,554.925 v -14.85 c 0,-0.041 0.034,-0.075 0.075,-0.075 h 14.85 c 0.041,0 0.075,0.034 0.075,0.075 v 14.85 c 0,0.041 -0.034,0.075 -0.075,0.075 z m -45,0 h -14.85 C 495.034,555 495,554.966 495,554.925 v -14.85 c 0,-0.041 0.034,-0.075 0.075,-0.075 h 14.85 c 0.041,0 0.075,0.034 0.075,0.075 v 14.85 c 0,0.041 -0.034,0.075 -0.075,0.075 z m -30,0 h -14.85 C 465.034,555 465,554.966 465,554.925 v -29.85 c 0,-0.041 0.034,-0.075 0.075,-0.075 h 14.85 c 0.041,0 0.075,-0.034 0.075,-0.075 v -14.85 C 480,510.034 479.966,510 479.925,510 h -14.85 c -0.041,0 -0.075,0.034 -0.075,0.075 v 14.85 c 0,0.041 -0.034,0.075 -0.075,0.075 h -29.85 C 435.034,525 435,524.966 435,524.925 v -14.85 c 0,-0.041 0.034,-0.075 0.075,-0.075 h 14.85 c 0.041,0 0.075,-0.034 0.075,-0.075 v -14.85 C 450,495.034 449.966,495 449.925,495 h -29.85 C 420.034,495 420,494.966 420,494.925 v -14.85 C 420,480.034 419.966,480 419.925,480 h -14.85 c -0.041,0 -0.075,0.034 -0.075,0.075 v 14.85 c 0,0.041 -0.034,0.075 -0.075,0.075 h -14.85 C 390.034,495 390,494.966 390,494.925 v -29.85 c 0,-0.041 0.034,-0.075 0.075,-0.075 h 29.85 c 0.041,0 0.075,-0.034 0.075,-0.075 v -29.85 C 420,435.034 419.966,435 419.925,435 h -14.85 C 405.034,435 405,434.966 405,434.925 v -14.85 c 0,-0.041 0.034,-0.075 0.075,-0.075 h 14.85 c 0.041,0 0.075,-0.034 0.075,-0.075 v -14.85 C 420,405.034 419.966,405 419.925,405 h -14.85 C 405.034,405 405,404.966 405,404.925 v -14.85 c 0,-0.041 0.034,-0.075 0.075,-0.075 h 14.85 c 0.041,0 0.075,-0.034 0.075,-0.075 v -29.85 c 0,-0.041 0.034,-0.075 0.075,-0.075 h 44.85 c 0.041,0 0.075,0.034 0.075,0.075 v 14.85 c 0,0.041 -0.034,0.075 -0.075,0.075 h -14.85 c -0.041,0 -0.075,0.034 -0.075,0.075 v 14.85 c 0,0.041 -0.034,0.075 -0.075,0.075 h -14.85 c -0.041,0 -0.075,0.034 -0.075,0.075 v 29.85 c 0,0.041 0.034,0.075 0.075,0.075 h 29.85 c 0.041,0 0.075,-0.034 0.075,-0.075 v -44.85 c 0,-0.041 0.034,-0.075 0.075,-0.075 h 14.85 c 0.041,0 0.075,0.034 0.075,0.075 v 29.85 c 0,0.041 0.034,0.075 0.075,0.075 h 14.85 c 0.041,0 0.075,0.034 0.075,0.075 v 14.85 c 0,0.041 0.034,0.075 0.075,0.075 h 14.85 c 0.041,0 0.075,0.034 0.075,0.075 v 14.85 c 0,0.041 0.034,0.075 0.075,0.075 h 14.85 c 0.041,0 0.075,0.034 0.075,0.075 v 14.85 c 0,0.041 -0.034,0.075 -0.075,0.075 h -14.85 c -0.041,0 -0.075,0.034 -0.075,0.075 v 14.85 c 0,0.041 -0.034,0.075 -0.075,0.075 h -14.85 c -0.041,0 -0.075,0.034 -0.075,0.075 v 44.85 c 0,0.041 0.034,0.075 0.075,0.075 h 14.85 c 0.041,0 0.075,-0.034 0.075,-0.075 v -14.85 c 0,-0.041 0.034,-0.075 0.075,-0.075 h 14.85 c 0.041,0 0.075,0.034 0.075,0.075 v 29.85 c 0,0.041 -0.034,0.075 -0.075,0.075 h -29.85 c -0.041,0 -0.075,0.034 -0.075,0.075 v 14.85 c 0,0.041 -0.034,0.075 -0.075,0.075 h -14.85 c -0.041,0 -0.075,0.034 -0.075,0.075 v 14.85 c 0,0.041 -0.034,0.075 -0.075,0.075 z m -45,0 h -29.85 C 405.034,555 405,554.966 405,554.925 v -29.85 C 405,525.034 404.966,525 404.925,525 h -59.85 C 345.034,525 345,524.966 345,524.925 v -14.85 c 0,-0.041 0.034,-0.075 0.075,-0.075 h 29.85 c 0.041,0 0.075,-0.034 0.075,-0.075 v -14.85 c 0,-0.041 0.034,-0.075 0.075,-0.075 h 14.85 c 0.041,0 0.075,0.034 0.075,0.075 v 14.85 c 0,0.041 0.034,0.075 0.075,0.075 h 29.85 c 0.041,0 0.075,0.034 0.075,0.075 v 14.85 c 0,0.041 0.034,0.075 0.075,0.075 h 14.85 c 0.041,0 0.075,0.034 0.075,0.075 v 29.85 c 0,0.041 -0.034,0.075 -0.075,0.075 z m -45,0 h -14.85 C 375.034,555 375,554.966 375,554.925 v -14.85 c 0,-0.041 0.034,-0.075 0.075,-0.075 h 14.85 c 0.041,0 0.075,0.034 0.075,0.075 v 14.85 c 0,0.041 -0.034,0.075 -0.075,0.075 z m -60,0 h -14.85 C 315.034,555 315,554.966 315,554.925 v -14.85 c 0,-0.041 0.034,-0.075 0.075,-0.075 h 14.85 c 0.041,0 0.075,0.034 0.075,0.075 v 14.85 c 0,0.041 -0.034,0.075 -0.075,0.075 z m -60,0 h -74.85 C 195.034,555 195,554.966 195,554.925 v -29.85 c 0,-0.041 0.034,-0.075 0.075,-0.075 h 29.85 c 0.041,0 0.075,0.034 0.075,0.075 v 14.85 c 0,0.041 0.034,0.075 0.075,0.075 h 29.85 c 0.041,0 0.075,-0.034 0.075,-0.075 v -14.85 c 0,-0.041 0.034,-0.075 0.075,-0.075 h 14.85 c 0.041,0 0.075,-0.034 0.075,-0.075 v -14.85 c 0,-0.041 0.034,-0.075 0.075,-0.075 h 14.85 c 0.041,0 0.075,0.034 0.075,0.075 v 14.85 c 0,0.041 0.034,0.075 0.075,0.075 h 14.85 c 0.041,0 0.075,0.034 0.075,0.075 v 14.85 c 0,0.041 -0.034,0.075 -0.075,0.075 h -29.85 c -0.041,0 -0.075,0.034 -0.075,0.075 v 14.85 c 0,0.041 -0.034,0.075 -0.075,0.075 z m -105,0 H 60.075 C 60.0336,555 60,554.966 60,554.925 V 450.075 C 60,450.034 60.0336,450 60.075,450 h 104.85 c 0.041,0 0.075,0.034 0.075,0.075 v 104.85 c 0,0.041 -0.034,0.075 -0.075,0.075 z M 150,539.925 v -74.85 C 150,465.034 149.966,465 149.925,465 H 75.075 C 75.0336,465 75,465.034 75,465.075 v 74.85 c 0,0.041 0.0336,0.075 0.075,0.075 h 74.85 c 0.041,0 0.075,-0.034 0.075,-0.075 z M 254.925,525 h -29.85 C 225.034,525 225,524.966 225,524.925 v -14.85 C 225,510.034 224.966,510 224.925,510 h -29.85 C 195.034,510 195,509.966 195,509.925 v -14.85 C 195,495.034 194.966,495 194.925,495 h -14.85 C 180.034,495 180,494.966 180,494.925 v -74.85 c 0,-0.041 0.034,-0.075 0.075,-0.075 h 14.85 c 0.041,0 0.075,0.034 0.075,0.075 v 59.85 c 0,0.041 0.034,0.075 0.075,0.075 h 29.85 c 0.041,0 0.075,-0.034 0.075,-0.075 v -14.85 c 0,-0.041 0.034,-0.075 0.075,-0.075 h 14.85 c 0.041,0 0.075,-0.034 0.075,-0.075 v -14.85 c 0,-0.041 0.034,-0.075 0.075,-0.075 h 14.85 c 0.041,0 0.075,0.034 0.075,0.075 v 14.85 c 0,0.041 0.034,0.075 0.075,0.075 h 14.85 c 0.041,0 0.075,0.034 0.075,0.075 v 29.85 c 0,0.041 -0.034,0.075 -0.075,0.075 h -14.85 c -0.041,0 -0.075,0.034 -0.075,0.075 v 29.85 c 0,0.041 -0.034,0.075 -0.075,0.075 z m -120,0 H 90.075 C 90.0336,525 90,524.966 90,524.925 v -44.85 C 90,480.034 90.0336,480 90.075,480 h 44.85 c 0.041,0 0.075,0.034 0.075,0.075 v 44.85 c 0,0.041 -0.034,0.075 -0.075,0.075 z m 420,-15 h -14.85 C 540.034,510 540,509.966 540,509.925 v -14.85 c 0,-0.041 0.034,-0.075 0.075,-0.075 h 14.85 c 0.041,0 0.075,0.034 0.075,0.075 v 14.85 c 0,0.041 -0.034,0.075 -0.075,0.075 z m -240,0 h -29.85 C 285.034,510 285,509.966 285,509.925 v -14.85 c 0,-0.041 0.034,-0.075 0.075,-0.075 h 29.85 c 0.041,0 0.075,0.034 0.075,0.075 v 14.85 c 0,0.041 -0.034,0.075 -0.075,0.075 z m 60,-15 h -59.85 C 315.034,495 315,494.966 315,494.925 v -44.85 c 0,-0.041 0.034,-0.075 0.075,-0.075 h 14.85 c 0.041,0 0.075,-0.034 0.075,-0.075 v -29.85 c 0,-0.041 0.034,-0.075 0.075,-0.075 h 14.85 c 0.041,0 0.075,0.034 0.075,0.075 v 14.85 c 0,0.041 0.034,0.075 0.075,0.075 h 14.85 c 0.041,0 0.075,0.034 0.075,0.075 v 29.85 c 0,0.041 -0.034,0.075 -0.075,0.075 h -14.85 c -0.041,0 -0.075,0.034 -0.075,0.075 v 14.85 c 0,0.041 0.034,0.075 0.075,0.075 h 14.85 c 0.041,0 0.075,-0.034 0.075,-0.075 v -14.85 c 0,-0.041 0.034,-0.075 0.075,-0.075 h 14.85 c 0.041,0 0.075,0.034 0.075,0.075 v 29.85 c 0,0.041 -0.034,0.075 -0.075,0.075 z m 180,-15 h -29.85 C 525.034,480 525,479.966 525,479.925 v -29.85 c 0,-0.041 0.034,-0.075 0.075,-0.075 h 14.85 c 0.041,0 0.075,0.034 0.075,0.075 v 14.85 c 0,0.041 0.034,0.075 0.075,0.075 h 14.85 c 0.041,0 0.075,0.034 0.075,0.075 v 14.85 c 0,0.041 -0.034,0.075 -0.075,0.075 z M 480,479.925 v -44.85 C 480,435.034 479.966,435 479.925,435 h -44.85 c -0.041,0 -0.075,0.034 -0.075,0.075 v 44.85 c 0,0.041 0.034,0.075 0.075,0.075 h 44.85 c 0.041,0 0.075,-0.034 0.075,-0.075 z M 464.925,465 h -14.85 C 450.034,465 450,464.966 450,464.925 v -14.85 c 0,-0.041 0.034,-0.075 0.075,-0.075 h 14.85 c 0.041,0 0.075,0.034 0.075,0.075 v 14.85 c 0,0.041 -0.034,0.075 -0.075,0.075 z m -165,0 h -14.85 C 285.034,465 285,464.966 285,464.925 v -29.85 C 285,435.034 284.966,435 284.925,435 h -14.85 C 270.034,435 270,434.966 270,434.925 v -14.85 c 0,-0.041 0.034,-0.075 0.075,-0.075 h 29.85 c 0.041,0 0.075,-0.034 0.075,-0.075 v -29.85 C 300,390.034 299.966,390 299.925,390 h -44.85 C 255.034,390 255,389.966 255,389.925 v -14.85 C 255,375.034 254.966,375 254.925,375 h -14.85 C 240.034,375 240,374.966 240,374.925 v -14.85 c 0,-0.041 0.034,-0.075 0.075,-0.075 h 29.85 c 0.041,0 0.075,-0.034 0.075,-0.075 v -14.85 C 270,345.034 269.966,345 269.925,345 h -14.85 C 255.034,345 255,344.966 255,344.925 v -14.85 C 255,330.034 254.966,330 254.925,330 h -14.85 C 240.034,330 240,329.966 240,329.925 v -29.85 c 0,-0.041 0.034,-0.075 0.075,-0.075 h 14.85 c 0.041,0 0.075,-0.034 0.075,-0.075 v -14.85 C 255,285.034 254.966,285 254.925,285 h -14.85 C 240.034,285 240,284.966 240,284.925 v -14.85 c 0,-0.041 0.034,-0.075 0.075,-0.075 h 29.85 c 0.041,0 0.075,-0.034 0.075,-0.075 v -14.85 C 270,255.034 269.966,255 269.925,255 h -14.85 C 255.034,255 255,254.966 255,254.925 v -29.85 C 255,225.034 254.966,225 254.925,225 h -14.85 c -0.041,0 -0.075,0.034 -0.075,0.075 v 29.85 c 0,0.041 -0.034,0.075 -0.075,0.075 h -14.85 c -0.041,0 -0.075,0.034 -0.075,0.075 v 29.85 c 0,0.041 -0.034,0.075 -0.075,0.075 h -14.85 C 210.034,285 210,284.966 210,284.925 v -29.85 C 210,255.034 209.966,255 209.925,255 h -14.85 c -0.041,0 -0.075,0.034 -0.075,0.075 v 14.85 c 0,0.041 -0.034,0.075 -0.075,0.075 h -14.85 C 180.034,270 180,269.966 180,269.925 v -14.85 C 180,255.034 179.966,255 179.925,255 h -29.85 C 150.034,255 150,254.966 150,254.925 v -14.85 c 0,-0.041 0.034,-0.075 0.075,-0.075 h 14.85 c 0.041,0 0.075,-0.034 0.075,-0.075 v -14.85 c 0,-0.041 0.034,-0.075 0.075,-0.075 h 44.85 c 0.041,0 0.075,0.034 0.075,0.075 v 14.85 c 0,0.041 0.034,0.075 0.075,0.075 h 14.85 c 0.041,0 0.075,-0.034 0.075,-0.075 v -29.85 c 0,-0.041 0.034,-0.075 0.075,-0.075 h 14.85 c 0.041,0 0.075,-0.034 0.075,-0.075 v -29.85 C 240,180.034 239.966,180 239.925,180 h -29.85 C 210.034,180 210,179.966 210,179.925 v -29.85 c 0,-0.041 0.034,-0.075 0.075,-0.075 h 14.85 c 0.041,0 0.075,0.034 0.075,0.075 v 14.85 c 0,0.041 0.034,0.075 0.075,0.075 h 14.85 c 0.041,0 0.075,-0.034 0.075,-0.075 v -14.85 c 0,-0.041 0.034,-0.075 0.075,-0.075 h 14.85 c 0.041,0 0.075,0.034 0.075,0.075 v 14.85 c 0,0.041 0.034,0.075 0.075,0.075 h 14.85 c 0.041,0 0.075,0.034 0.075,0.075 v 59.85 c 0,0.041 0.034,0.075 0.075,0.075 h 14.85 c 0.041,0 0.075,-0.034 0.075,-0.075 v -14.85 c 0,-0.041 0.034,-0.075 0.075,-0.075 h 14.85 c 0.041,0 0.075,0.034 0.075,0.075 v 14.85 c 0,0.041 0.034,0.075 0.075,0.075 h 29.85 c 0.041,0 0.075,-0.034 0.075,-0.075 v -14.85 C 330,210.034 329.966,210 329.925,210 h -14.85 C 315.034,210 315,209.966 315,209.925 v -14.85 C 315,195.034 314.966,195 314.925,195 h -29.85 C 285.034,195 285,194.966 285,194.925 v -14.85 c 0,-0.041 0.034,-0.075 0.075,-0.075 h 44.85 c 0.041,0 0.075,0.034 0.075,0.075 v 14.85 c 0,0.041 0.034,0.075 0.075,0.075 h 14.85 c 0.041,0 0.075,0.034 0.075,0.075 v 29.85 c 0,0.041 0.034,0.075 0.075,0.075 h 14.85 c 0.041,0 0.075,-0.034 0.075,-0.075 v -14.85 c 0,-0.041 0.034,-0.075 0.075,-0.075 h 44.85 c 0.041,0 0.075,-0.034 0.075,-0.075 v -14.85 C 405,195.034 404.966,195 404.925,195 h -29.85 C 375.034,195 375,194.966 375,194.925 v -14.85 C 375,180.034 374.966,180 374.925,180 h -14.85 C 360.034,180 360,179.966 360,179.925 v -44.85 c 0,-0.041 0.034,-0.075 0.075,-0.075 h 14.85 c 0.041,0 0.075,0.034 0.075,0.075 v 29.85 c 0,0.041 0.034,0.075 0.075,0.075 h 14.85 c 0.041,0 0.075,0.034 0.075,0.075 v 14.85 c 0,0.041 0.034,0.075 0.075,0.075 h 29.85 c 0.041,0 0.075,-0.034 0.075,-0.075 v -29.85 C 420,150.034 419.966,150 419.925,150 h -14.85 C 405.034,150 405,149.966 405,149.925 v -14.85 c 0,-0.041 0.034,-0.075 0.075,-0.075 h 29.85 c 0.041,0 0.075,0.034 0.075,0.075 v 59.85 c 0,0.041 -0.034,0.075 -0.075,0.075 h -14.85 c -0.041,0 -0.075,0.034 -0.075,0.075 v 29.85 c 0,0.041 -0.034,0.075 -0.075,0.075 h -29.85 c -0.041,0 -0.075,0.034 -0.075,0.075 v 14.85 c 0,0.041 -0.034,0.075 -0.075,0.075 h -29.85 c -0.041,0 -0.075,0.034 -0.075,0.075 v 29.85 c 0,0.041 0.034,0.075 0.075,0.075 h 14.85 c 0.041,0 0.075,0.034 0.075,0.075 v 14.85 c 0,0.041 0.034,0.075 0.075,0.075 h 14.85 c 0.041,0 0.075,0.034 0.075,0.075 v 44.85 c 0,0.041 -0.034,0.075 -0.075,0.075 h -14.85 C 375.034,330 375,329.966 375,329.925 v -14.85 C 375,315.034 374.966,315 374.925,315 h -14.85 C 360.034,315 360,314.966 360,314.925 v -14.85 C 360,300.034 359.966,300 359.925,300 h -29.85 C 330.034,300 330,299.966 330,299.925 v -14.85 c 0,-0.041 0.034,-0.075 0.075,-0.075 h 14.85 c 0.041,0 0.075,-0.034 0.075,-0.075 v -44.85 C 345,240.034 344.966,240 344.925,240 h -29.85 c -0.041,0 -0.075,0.034 -0.075,0.075 v 29.85 c 0,0.041 -0.034,0.075 -0.075,0.075 h -14.85 C 300.034,270 300,269.966 300,269.925 v -29.85 C 300,240.034 299.966,240 299.925,240 h -14.85 c -0.041,0 -0.075,0.034 -0.075,0.075 v 29.85 c 0,0.041 0.034,0.075 0.075,0.075 h 14.85 c 0.041,0 0.075,0.034 0.075,0.075 v 14.85 c 0,0.041 -0.034,0.075 -0.075,0.075 h -14.85 c -0.041,0 -0.075,0.034 -0.075,0.075 v 14.85 c 0,0.041 0.034,0.075 0.075,0.075 h 14.85 c 0.041,0 0.075,0.034 0.075,0.075 v 14.85 c 0,0.041 0.034,0.075 0.075,0.075 h 29.85 c 0.041,0 0.075,0.034 0.075,0.075 v 14.85 c 0,0.041 -0.034,0.075 -0.075,0.075 h -29.85 c -0.041,0 -0.075,0.034 -0.075,0.075 v 14.85 c 0,0.041 0.034,0.075 0.075,0.075 h 29.85 c 0.041,0 0.075,-0.034 0.075,-0.075 v -14.85 c 0,-0.041 0.034,-0.075 0.075,-0.075 h 14.85 c 0.041,0 0.075,0.034 0.075,0.075 v 14.85 c 0,0.041 0.034,0.075 0.075,0.075 h 14.85 c 0.041,0 0.075,-0.034 0.075,-0.075 v -14.85 c 0,-0.041 0.034,-0.075 0.075,-0.075 h 14.85 c 0.041,0 0.075,0.034 0.075,0.075 v 14.85 c 0,0.041 0.034,0.075 0.075,0.075 h 29.85 c 0.041,0 0.075,0.034 0.075,0.075 v 29.85 c 0,0.041 -0.034,0.075 -0.075,0.075 h -14.85 c -0.041,0 -0.075,0.034 -0.075,0.075 v 14.85 c 0,0.041 -0.034,0.075 -0.075,0.075 h -59.85 c -0.041,0 -0.075,0.034 -0.075,0.075 v 14.85 c 0,0.041 -0.034,0.075 -0.075,0.075 h -14.85 c -0.041,0 -0.075,0.034 -0.075,0.075 v 44.85 c 0,0.041 -0.034,0.075 -0.075,0.075 h -14.85 c -0.041,0 -0.075,0.034 -0.075,0.075 v 14.85 c 0,0.041 -0.034,0.075 -0.075,0.075 z m -75,0 h -14.85 C 210.034,465 210,464.966 210,464.925 v -29.85 c 0,-0.041 0.034,-0.075 0.075,-0.075 h 14.85 c 0.041,0 0.075,-0.034 0.075,-0.075 v -14.85 c 0,-0.041 0.034,-0.075 0.075,-0.075 h 14.85 c 0.041,0 0.075,-0.034 0.075,-0.075 v -14.85 c 0,-0.041 0.034,-0.075 0.075,-0.075 h 29.85 c 0.041,0 0.075,0.034 0.075,0.075 v 14.85 c 0,0.041 -0.034,0.075 -0.075,0.075 h -14.85 c -0.041,0 -0.075,0.034 -0.075,0.075 v 14.85 c 0,0.041 -0.034,0.075 -0.075,0.075 h -14.85 c -0.041,0 -0.075,0.034 -0.075,0.075 v 14.85 c 0,0.041 -0.034,0.075 -0.075,0.075 h -14.85 c -0.041,0 -0.075,0.034 -0.075,0.075 v 14.85 c 0,0.041 -0.034,0.075 -0.075,0.075 z m 165,-15 h -14.85 C 375.034,450 375,449.966 375,449.925 v -44.85 c 0,-0.041 0.034,-0.075 0.075,-0.075 h 14.85 c 0.041,0 0.075,0.034 0.075,0.075 v 44.85 c 0,0.041 -0.034,0.075 -0.075,0.075 z m -120,0 h -14.85 C 255.034,450 255,449.966 255,449.925 v -14.85 c 0,-0.041 0.034,-0.075 0.075,-0.075 h 14.85 c 0.041,0 0.075,0.034 0.075,0.075 v 14.85 c 0,0.041 -0.034,0.075 -0.075,0.075 z m 285,-15 h -14.85 C 540.034,435 540,434.966 540,434.925 v -14.85 C 540,420.034 539.966,420 539.925,420 h -14.85 C 525.034,420 525,419.966 525,419.925 v -29.85 C 525,390.034 524.966,390 524.925,390 h -14.85 C 510.034,390 510,389.966 510,389.925 v -14.85 c 0,-0.041 0.034,-0.075 0.075,-0.075 h 29.85 c 0.041,0 0.075,0.034 0.075,0.075 v 29.85 c 0,0.041 0.034,0.075 0.075,0.075 h 14.85 c 0.041,0 0.075,0.034 0.075,0.075 v 29.85 c 0,0.041 -0.034,0.075 -0.075,0.075 z m -390,0 h -14.85 C 150.034,435 150,434.966 150,434.925 v -14.85 c 0,-0.041 0.034,-0.075 0.075,-0.075 h 14.85 c 0.041,0 0.075,0.034 0.075,0.075 v 14.85 c 0,0.041 -0.034,0.075 -0.075,0.075 z m -45,0 h -14.85 C 105.034,435 105,434.966 105,434.925 v -29.85 c 0,-0.041 0.034,-0.075 0.075,-0.075 h 14.85 c 0.041,0 0.075,0.034 0.075,0.075 v 29.85 c 0,0.041 -0.034,0.075 -0.075,0.075 z m -30,0 H 60.075 C 60.0336,435 60,434.966 60,434.925 v -14.85 C 60,420.034 60.0336,420 60.075,420 h 29.85 c 0.0414,0 0.075,0.034 0.075,0.075 v 14.85 C 90,434.966 89.9664,435 89.925,435 Z m 135,-15 h -14.85 C 210.034,420 210,419.966 210,419.925 v -14.85 C 210,405.034 209.966,405 209.925,405 h -29.85 C 180.034,405 180,404.966 180,404.925 v -14.85 c 0,-0.041 0.034,-0.075 0.075,-0.075 h 14.85 c 0.041,0 0.075,-0.034 0.075,-0.075 v -14.85 C 195,375.034 194.966,375 194.925,375 h -14.85 C 180.034,375 180,374.966 180,374.925 v -14.85 C 180,360.034 179.966,360 179.925,360 h -14.85 C 165.034,360 165,359.966 165,359.925 v -14.85 C 165,345.034 164.966,345 164.925,345 h -44.85 C 120.034,345 120,344.966 120,344.925 v -14.85 c 0,-0.041 0.034,-0.075 0.075,-0.075 h 14.85 c 0.041,0 0.075,-0.034 0.075,-0.075 v -14.85 c 0,-0.041 0.034,-0.075 0.075,-0.075 h 14.85 c 0.041,0 0.075,0.034 0.075,0.075 v 14.85 c 0,0.041 0.034,0.075 0.075,0.075 h 44.85 c 0.041,0 0.075,0.034 0.075,0.075 v 29.85 c 0,0.041 0.034,0.075 0.075,0.075 h 14.85 c 0.041,0 0.075,0.034 0.075,0.075 v 29.85 c 0,0.041 0.034,0.075 0.075,0.075 h 14.85 c 0.041,0 0.075,0.034 0.075,0.075 v 29.85 c 0,0.041 -0.034,0.075 -0.075,0.075 z m -45,0 h -14.85 C 165.034,420 165,419.966 165,419.925 v -14.85 c 0,-0.041 0.034,-0.075 0.075,-0.075 h 14.85 c 0.041,0 0.075,0.034 0.075,0.075 v 14.85 c 0,0.041 -0.034,0.075 -0.075,0.075 z m -15,-15 h -14.85 C 150.034,405 150,404.966 150,404.925 v -14.85 c 0,-0.041 0.034,-0.075 0.075,-0.075 h 14.85 c 0.041,0 0.075,0.034 0.075,0.075 v 14.85 c 0,0.041 -0.034,0.075 -0.075,0.075 z m -30,0 h -14.85 C 120.034,405 120,404.966 120,404.925 v -14.85 c 0,-0.041 0.034,-0.075 0.075,-0.075 h 14.85 c 0.041,0 0.075,0.034 0.075,0.075 v 14.85 c 0,0.041 -0.034,0.075 -0.075,0.075 z m -30,0 H 90.075 C 90.0336,405 90,404.966 90,404.925 v -14.85 C 90,390.034 89.9664,390 89.925,390 H 60.075 C 60.0336,390 60,389.966 60,389.925 v -14.85 C 60,375.034 60.0336,375 60.075,375 h 14.85 C 74.9664,375 75,374.966 75,374.925 v -14.85 C 75,360.034 75.0336,360 75.075,360 h 44.85 c 0.041,0 0.075,0.034 0.075,0.075 v 29.85 c 0,0.041 -0.034,0.075 -0.075,0.075 h -14.85 c -0.041,0 -0.075,0.034 -0.075,0.075 v 14.85 c 0,0.041 -0.034,0.075 -0.075,0.075 z m 135,-15 h -14.85 C 225.034,390 225,389.966 225,389.925 v -14.85 c 0,-0.041 0.034,-0.075 0.075,-0.075 h 14.85 c 0.041,0 0.075,0.034 0.075,0.075 v 14.85 c 0,0.041 -0.034,0.075 -0.075,0.075 z m -60,0 h -14.85 C 165.034,390 165,389.966 165,389.925 v -14.85 c 0,-0.041 0.034,-0.075 0.075,-0.075 h 14.85 c 0.041,0 0.075,0.034 0.075,0.075 v 14.85 c 0,0.041 -0.034,0.075 -0.075,0.075 z m 330,-15 h -29.85 C 480.034,375 480,374.966 480,374.925 v -14.85 c 0,-0.041 0.034,-0.075 0.075,-0.075 h 29.85 c 0.041,0 0.075,0.034 0.075,0.075 v 14.85 c 0,0.041 -0.034,0.075 -0.075,0.075 z M 375,374.925 v -14.85 C 375,360.034 374.966,360 374.925,360 h -59.85 c -0.041,0 -0.075,0.034 -0.075,0.075 v 14.85 c 0,0.041 0.034,0.075 0.075,0.075 h 59.85 c 0.041,0 0.075,-0.034 0.075,-0.075 z m -75,0 v -14.85 C 300,360.034 299.966,360 299.925,360 h -14.85 c -0.041,0 -0.075,0.034 -0.075,0.075 v 14.85 c 0,0.041 0.034,0.075 0.075,0.075 h 14.85 c 0.041,0 0.075,-0.034 0.075,-0.075 z M 164.925,375 h -14.85 C 150.034,375 150,374.966 150,374.925 v -14.85 c 0,-0.041 0.034,-0.075 0.075,-0.075 h 14.85 c 0.041,0 0.075,0.034 0.075,0.075 v 14.85 c 0,0.041 -0.034,0.075 -0.075,0.075 z m 390,-15 h -29.85 C 525.034,360 525,359.966 525,359.925 v -44.85 c 0,-0.041 0.034,-0.075 0.075,-0.075 h 14.85 c 0.041,0 0.075,0.034 0.075,0.075 v 29.85 c 0,0.041 0.034,0.075 0.075,0.075 h 14.85 c 0.041,0 0.075,0.034 0.075,0.075 v 14.85 c 0,0.041 -0.034,0.075 -0.075,0.075 z m -75,0 h -14.85 C 465.034,360 465,359.966 465,359.925 v -14.85 C 465,345.034 464.966,345 464.925,345 h -14.85 C 450.034,345 450,344.966 450,344.925 v -14.85 c 0,-0.041 0.034,-0.075 0.075,-0.075 h 14.85 c 0.041,0 0.075,-0.034 0.075,-0.075 v -14.85 C 465,315.034 464.966,315 464.925,315 h -14.85 C 450.034,315 450,314.966 450,314.925 v -14.85 c 0,-0.041 0.034,-0.075 0.075,-0.075 h 14.85 c 0.041,0 0.075,-0.034 0.075,-0.075 v -44.85 c 0,-0.041 0.034,-0.075 0.075,-0.075 h 14.85 c 0.041,0 0.075,0.034 0.075,0.075 v 14.85 c 0,0.041 0.034,0.075 0.075,0.075 h 14.85 c 0.041,0 0.075,0.034 0.075,0.075 v 29.85 c 0,0.041 0.034,0.075 0.075,0.075 h 14.85 c 0.041,0 0.075,0.034 0.075,0.075 v 14.85 c 0,0.041 -0.034,0.075 -0.075,0.075 h -29.85 c -0.041,0 -0.075,0.034 -0.075,0.075 v 14.85 c 0,0.041 0.034,0.075 0.075,0.075 h 29.85 c 0.041,0 0.075,0.034 0.075,0.075 v 14.85 c 0,0.041 -0.034,0.075 -0.075,0.075 h -29.85 c -0.041,0 -0.075,0.034 -0.075,0.075 v 14.85 c 0,0.041 -0.034,0.075 -0.075,0.075 z m -255,0 h -14.85 C 210.034,360 210,359.966 210,359.925 v -29.85 c 0,-0.041 0.034,-0.075 0.075,-0.075 h 14.85 c 0.041,0 0.075,0.034 0.075,0.075 v 29.85 c 0,0.041 -0.034,0.075 -0.075,0.075 z m 210,-15 h -29.85 C 405.034,345 405,344.966 405,344.925 v -74.85 C 405,270.034 404.966,270 404.925,270 h -29.85 C 375.034,270 375,269.966 375,269.925 v -14.85 c 0,-0.041 0.034,-0.075 0.075,-0.075 h 29.85 c 0.041,0 0.075,-0.034 0.075,-0.075 v -14.85 c 0,-0.041 0.034,-0.075 0.075,-0.075 h 14.85 c 0.041,0 0.075,0.034 0.075,0.075 v 14.85 c 0,0.041 0.034,0.075 0.075,0.075 h 14.85 c 0.041,0 0.075,0.034 0.075,0.075 v 14.85 c 0,0.041 -0.034,0.075 -0.075,0.075 h -14.85 c -0.041,0 -0.075,0.034 -0.075,0.075 v 44.85 c 0,0.041 0.034,0.075 0.075,0.075 h 29.85 c 0.041,0 0.075,0.034 0.075,0.075 v 14.85 c 0,0.041 -0.034,0.075 -0.075,0.075 h -14.85 c -0.041,0 -0.075,0.034 -0.075,0.075 v 14.85 c 0,0.041 -0.034,0.075 -0.075,0.075 z m -360,0 H 60.075 C 60.0336,345 60,344.966 60,344.925 v -14.85 C 60,330.034 60.0336,330 60.075,330 h 14.85 c 0.0414,0 0.075,0.034 0.075,0.075 v 14.85 C 75,344.966 74.9664,345 74.925,345 Z M 285,329.925 v -14.85 C 285,315.034 284.966,315 284.925,315 h -14.85 c -0.041,0 -0.075,0.034 -0.075,0.075 v 14.85 c 0,0.041 0.034,0.075 0.075,0.075 h 14.85 c 0.041,0 0.075,-0.034 0.075,-0.075 z M 119.925,330 H 90.075 C 90.0336,330 90,329.966 90,329.925 v -29.85 C 90,300.034 90.0336,300 90.075,300 h 14.85 c 0.041,0 0.075,-0.034 0.075,-0.075 v -14.85 c 0,-0.041 0.034,-0.075 0.075,-0.075 h 14.85 c 0.041,0 0.075,0.034 0.075,0.075 v 44.85 c 0,0.041 -0.034,0.075 -0.075,0.075 z m 90,-15 h -29.85 C 180.034,315 180,314.966 180,314.925 v -14.85 c 0,-0.041 0.034,-0.075 0.075,-0.075 h 14.85 c 0.041,0 0.075,-0.034 0.075,-0.075 v -14.85 c 0,-0.041 0.034,-0.075 0.075,-0.075 h 14.85 c 0.041,0 0.075,0.034 0.075,0.075 v 29.85 c 0,0.041 -0.034,0.075 -0.075,0.075 z m -45,0 h -14.85 C 150.034,315 150,314.966 150,314.925 v -14.85 c 0,-0.041 0.034,-0.075 0.075,-0.075 h 14.85 c 0.041,0 0.075,0.034 0.075,0.075 v 14.85 c 0,0.041 -0.034,0.075 -0.075,0.075 z m 390,-15 h -29.85 C 525.034,300 525,299.966 525,299.925 v -14.85 C 525,285.034 524.966,285 524.925,285 h -14.85 C 510.034,285 510,284.966 510,284.925 v -14.85 C 510,270.034 509.966,270 509.925,270 h -14.85 C 495.034,270 495,269.966 495,269.925 v -14.85 C 495,255.034 494.966,255 494.925,255 h -14.85 C 480.034,255 480,254.966 480,254.925 v -29.85 C 480,225.034 479.966,225 479.925,225 h -14.85 c -0.041,0 -0.075,0.034 -0.075,0.075 v 29.85 c 0,0.041 -0.034,0.075 -0.075,0.075 h -14.85 C 450.034,255 450,254.966 450,254.925 v -14.85 C 450,240.034 449.966,240 449.925,240 h -29.85 C 420.034,240 420,239.966 420,239.925 v -14.85 c 0,-0.041 0.034,-0.075 0.075,-0.075 h 14.85 c 0.041,0 0.075,-0.034 0.075,-0.075 v -14.85 c 0,-0.041 0.034,-0.075 0.075,-0.075 h 29.85 c 0.041,0 0.075,-0.034 0.075,-0.075 v -14.85 C 465,195.034 464.966,195 464.925,195 h -14.85 C 450.034,195 450,194.966 450,194.925 v -14.85 c 0,-0.041 0.034,-0.075 0.075,-0.075 h 29.85 c 0.041,0 0.075,0.034 0.075,0.075 v 29.85 c 0,0.041 0.034,0.075 0.075,0.075 h 14.85 c 0.041,0 0.075,0.034 0.075,0.075 v 29.85 c 0,0.041 0.034,0.075 0.075,0.075 h 14.85 c 0.041,0 0.075,0.034 0.075,0.075 v 14.85 c 0,0.041 0.034,0.075 0.075,0.075 h 14.85 c 0.041,0 0.075,-0.034 0.075,-0.075 v -74.85 c 0,-0.041 0.034,-0.075 0.075,-0.075 h 14.85 c 0.041,0 0.075,0.034 0.075,0.075 v 104.85 c 0,0.041 0.034,0.075 0.075,0.075 h 14.85 c 0.041,0 0.075,0.034 0.075,0.075 v 14.85 c 0,0.041 -0.034,0.075 -0.075,0.075 z m -105,0 h -14.85 C 435.034,300 435,299.966 435,299.925 v -29.85 c 0,-0.041 0.034,-0.075 0.075,-0.075 h 14.85 c 0.041,0 0.075,0.034 0.075,0.075 v 29.85 c 0,0.041 -0.034,0.075 -0.075,0.075 z m -300,0 h -14.85 C 135.034,300 135,299.966 135,299.925 v -29.85 C 135,270.034 134.966,270 134.925,270 h -14.85 C 120.034,270 120,269.966 120,269.925 v -14.85 c 0,-0.041 0.034,-0.075 0.075,-0.075 h 29.85 c 0.041,0 0.075,0.034 0.075,0.075 v 14.85 c 0,0.041 0.034,0.075 0.075,0.075 h 14.85 c 0.041,0 0.075,0.034 0.075,0.075 v 14.85 c 0,0.041 -0.034,0.075 -0.075,0.075 h -14.85 c -0.041,0 -0.075,0.034 -0.075,0.075 v 14.85 c 0,0.041 -0.034,0.075 -0.075,0.075 z m -60,0 H 75.075 C 75.0336,300 75,299.966 75,299.925 v -14.85 C 75,285.034 74.9664,285 74.925,285 H 60.075 C 60.0336,285 60,284.966 60,284.925 v -29.85 C 60,255.034 60.0336,255 60.075,255 h 14.85 c 0.0414,0 0.075,0.034 0.075,0.075 v 14.85 c 0,0.041 0.0336,0.075 0.075,0.075 h 14.85 c 0.0414,0 0.075,0.034 0.075,0.075 v 29.85 C 90,299.966 89.9664,300 89.925,300 Z m 240,-15 h -14.85 C 315.034,285 315,284.966 315,284.925 v -14.85 c 0,-0.041 0.034,-0.075 0.075,-0.075 h 14.85 c 0.041,0 0.075,0.034 0.075,0.075 v 14.85 c 0,0.041 -0.034,0.075 -0.075,0.075 z m -225,-30 H 90.075 C 90.0336,255 90,254.966 90,254.925 v -14.85 C 90,240.034 89.9664,240 89.925,240 H 60.075 C 60.0336,240 60,239.966 60,239.925 v -44.85 C 60,195.034 60.0336,195 60.075,195 h 59.85 c 0.041,0 0.075,-0.034 0.075,-0.075 v -14.85 c 0,-0.041 0.034,-0.075 0.075,-0.075 h 59.85 c 0.041,0 0.075,0.034 0.075,0.075 v 14.85 c 0,0.041 0.034,0.075 0.075,0.075 h 29.85 c 0.041,0 0.075,0.034 0.075,0.075 v 14.85 c 0,0.041 -0.034,0.075 -0.075,0.075 h -44.85 C 165.034,210 165,209.966 165,209.925 v -14.85 C 165,195.034 164.966,195 164.925,195 h -14.85 c -0.041,0 -0.075,0.034 -0.075,0.075 v 14.85 c 0,0.041 0.034,0.075 0.075,0.075 h 14.85 c 0.041,0 0.075,0.034 0.075,0.075 v 14.85 c 0,0.041 -0.034,0.075 -0.075,0.075 h -29.85 C 135.034,225 135,224.966 135,224.925 v -14.85 C 135,210.034 134.966,210 134.925,210 h -29.85 c -0.041,0 -0.075,0.034 -0.075,0.075 v 44.85 c 0,0.041 -0.034,0.075 -0.075,0.075 z m 30,-15 h -14.85 C 120.034,240 120,239.966 120,239.925 v -14.85 c 0,-0.041 0.034,-0.075 0.075,-0.075 h 14.85 c 0.041,0 0.075,0.034 0.075,0.075 v 14.85 c 0,0.041 -0.034,0.075 -0.075,0.075 z m 210,-60 h -14.85 C 330.034,180 330,179.966 330,179.925 v -29.85 c 0,-0.041 0.034,-0.075 0.075,-0.075 h 14.85 c 0.041,0 0.075,0.034 0.075,0.075 v 29.85 c 0,0.041 -0.034,0.075 -0.075,0.075 z m -150,0 h -14.85 C 180.034,180 180,179.966 180,179.925 v -44.85 c 0,-0.041 0.034,-0.075 0.075,-0.075 h 29.85 c 0.041,0 0.075,0.034 0.075,0.075 v 14.85 c 0,0.041 -0.034,0.075 -0.075,0.075 h -14.85 c -0.041,0 -0.075,0.034 -0.075,0.075 v 29.85 c 0,0.041 -0.034,0.075 -0.075,0.075 z m 360,-15 H 450.075 C 450.034,165 450,164.966 450,164.925 V 60.075 C 450,60.0336 450.034,60 450.075,60 h 104.85 c 0.041,0 0.075,0.0336 0.075,0.075 v 104.85 c 0,0.041 -0.034,0.075 -0.075,0.075 z m -150,0 h -14.85 C 390.034,165 390,164.966 390,164.925 v -14.85 c 0,-0.041 0.034,-0.075 0.075,-0.075 h 14.85 c 0.041,0 0.075,0.034 0.075,0.075 v 14.85 c 0,0.041 -0.034,0.075 -0.075,0.075 z m -90,0 h -14.85 C 300.034,165 300,164.966 300,164.925 v -14.85 c 0,-0.041 0.034,-0.075 0.075,-0.075 h 14.85 c 0.041,0 0.075,0.034 0.075,0.075 v 14.85 c 0,0.041 -0.034,0.075 -0.075,0.075 z m -30,0 h -14.85 C 270.034,165 270,164.966 270,164.925 v -14.85 c 0,-0.041 0.034,-0.075 0.075,-0.075 h 14.85 c 0.041,0 0.075,0.034 0.075,0.075 v 14.85 c 0,0.041 -0.034,0.075 -0.075,0.075 z m -120,0 H 60.075 C 60.0336,165 60,164.966 60,164.925 V 60.075 C 60,60.0336 60.0336,60 60.075,60 h 104.85 c 0.041,0 0.075,0.0336 0.075,0.075 v 104.85 c 0,0.041 -0.034,0.075 -0.075,0.075 z M 540,149.925 V 75.075 C 540,75.0336 539.966,75 539.925,75 h -74.85 C 465.034,75 465,75.0336 465,75.075 v 74.85 c 0,0.041 0.034,0.075 0.075,0.075 h 74.85 c 0.041,0 0.075,-0.034 0.075,-0.075 z M 329.925,150 h -14.85 C 315.034,150 315,149.966 315,149.925 v -14.85 c 0,-0.041 0.034,-0.075 0.075,-0.075 h 14.85 c 0.041,0 0.075,0.034 0.075,0.075 v 14.85 c 0,0.041 -0.034,0.075 -0.075,0.075 z m -90,0 h -14.85 C 225.034,150 225,149.966 225,149.925 v -14.85 c 0,-0.041 0.034,-0.075 0.075,-0.075 h 14.85 c 0.041,0 0.075,0.034 0.075,0.075 v 14.85 c 0,0.041 -0.034,0.075 -0.075,0.075 z M 150,149.925 V 75.075 C 150,75.0336 149.966,75 149.925,75 H 75.075 C 75.0336,75 75,75.0336 75,75.075 v 74.85 c 0,0.041 0.0336,0.075 0.075,0.075 h 74.85 c 0.041,0 0.075,-0.034 0.075,-0.075 z M 524.925,135 h -44.85 C 480.034,135 480,134.966 480,134.925 V 90.075 C 480,90.0336 480.034,90 480.075,90 h 44.85 c 0.041,0 0.075,0.0336 0.075,0.075 v 44.85 c 0,0.041 -0.034,0.075 -0.075,0.075 z m -135,0 h -14.85 C 375.034,135 375,134.966 375,134.925 v -14.85 c 0,-0.041 0.034,-0.075 0.075,-0.075 h 14.85 c 0.041,0 0.075,0.034 0.075,0.075 v 14.85 c 0,0.041 -0.034,0.075 -0.075,0.075 z m -45,0 h -14.85 C 330.034,135 330,134.966 330,134.925 v -14.85 c 0,-0.041 0.034,-0.075 0.075,-0.075 h 14.85 c 0.041,0 0.075,0.034 0.075,0.075 v 14.85 c 0,0.041 -0.034,0.075 -0.075,0.075 z m -30,0 h -14.85 C 300.034,135 300,134.966 300,134.925 v -29.85 c 0,-0.041 0.034,-0.075 0.075,-0.075 h 14.85 c 0.041,0 0.075,0.034 0.075,0.075 v 29.85 c 0,0.041 -0.034,0.075 -0.075,0.075 z m -30,0 h -14.85 C 270.034,135 270,134.966 270,134.925 v -14.85 c 0,-0.041 0.034,-0.075 0.075,-0.075 h 14.85 c 0.041,0 0.075,0.034 0.075,0.075 v 14.85 c 0,0.041 -0.034,0.075 -0.075,0.075 z m -30,0 h -14.85 C 240.034,135 240,134.966 240,134.925 v -14.85 C 240,120.034 239.966,120 239.925,120 h -29.85 C 210.034,120 210,119.966 210,119.925 v -14.85 C 210,105.034 209.966,105 209.925,105 h -14.85 C 195.034,105 195,104.966 195,104.925 V 90.075 C 195,90.0336 195.034,90 195.075,90 h 29.85 C 224.966,90 225,89.9664 225,89.925 V 75.075 C 225,75.0336 225.034,75 225.075,75 h 29.85 c 0.041,0 0.075,0.0336 0.075,0.075 v 14.85 c 0,0.0414 0.034,0.075 0.075,0.075 h 29.85 C 284.966,90 285,89.9664 285,89.925 V 75.075 C 285,75.0336 285.034,75 285.075,75 h 14.85 c 0.041,0 0.075,0.0336 0.075,0.075 v 29.85 c 0,0.041 -0.034,0.075 -0.075,0.075 h -44.85 c -0.041,0 -0.075,0.034 -0.075,0.075 v 29.85 c 0,0.041 -0.034,0.075 -0.075,0.075 z m -120,0 H 90.075 C 90.0336,135 90,134.966 90,134.925 V 90.075 C 90,90.0336 90.0336,90 90.075,90 h 44.85 c 0.041,0 0.075,0.0336 0.075,0.075 v 44.85 c 0,0.041 -0.034,0.075 -0.075,0.075 z m 270,-15 h -14.85 C 390.034,120 390,119.966 390,119.925 v -14.85 c 0,-0.041 0.034,-0.075 0.075,-0.075 h 14.85 c 0.041,0 0.075,0.034 0.075,0.075 v 14.85 c 0,0.041 -0.034,0.075 -0.075,0.075 z m -30,0 h -14.85 C 360.034,120 360,119.966 360,119.925 v -14.85 c 0,-0.041 0.034,-0.075 0.075,-0.075 h 14.85 c 0.041,0 0.075,0.034 0.075,0.075 v 14.85 c 0,0.041 -0.034,0.075 -0.075,0.075 z m 15,-15 h -14.85 C 375.034,105 375,104.966 375,104.925 V 90.075 C 375,90.0336 375.034,90 375.075,90 h 14.85 c 0.041,0 0.075,0.0336 0.075,0.075 v 14.85 c 0,0.041 -0.034,0.075 -0.075,0.075 z m -45,0 h -29.85 C 315.034,105 315,104.966 315,104.925 V 90.075 C 315,90.0336 315.034,90 315.075,90 h 14.85 C 329.966,90 330,89.9664 330,89.925 V 75.075 C 330,75.0336 329.966,75 329.925,75 h -14.85 C 315.034,75 315,74.9664 315,74.925 V 60.075 C 315,60.0336 315.034,60 315.075,60 h 44.85 c 0.041,0 0.075,0.0336 0.075,0.075 v 14.85 c 0,0.0414 0.034,0.075 0.075,0.075 h 14.85 c 0.041,0 0.075,0.0336 0.075,0.075 v 14.85 C 375,89.9664 374.966,90 374.925,90 h -29.85 C 345.034,90 345,90.0336 345,90.075 v 14.85 c 0,0.041 -0.034,0.075 -0.075,0.075 z m 90,-15 h -14.85 C 420.034,90 420,89.9664 420,89.925 V 75.075 C 420,75.0336 419.966,75 419.925,75 h -14.85 C 405.034,75 405,74.9664 405,74.925 V 60.075 C 405,60.0336 405.034,60 405.075,60 h 29.85 c 0.041,0 0.075,0.0336 0.075,0.075 v 29.85 C 435,89.9664 434.966,90 434.925,90 Z m -240,0 h -14.85 C 180.034,90 180,89.9664 180,89.925 V 75.075 C 180,75.0336 180.034,75 180.075,75 h 14.85 c 0.041,0 0.075,0.0336 0.075,0.075 v 14.85 C 195,89.9664 194.966,90 194.925,90 Z m 195,-15 h -14.85 C 375.034,75 375,74.9664 375,74.925 V 60.075 C 375,60.0336 375.034,60 375.075,60 h 14.85 c 0.041,0 0.075,0.0336 0.075,0.075 v 14.85 C 390,74.9664 389.966,75 389.925,75 Z m -105,0 h -14.85 C 270.034,75 270,74.9664 270,74.925 V 60.075 C 270,60.0336 270.034,60 270.075,60 h 14.85 c 0.041,0 0.075,0.0336 0.075,0.075 v 14.85 C 285,74.9664 284.966,75 284.925,75 Z m -60,0 h -14.85 C 210.034,75 210,74.9664 210,74.925 V 60.075 C 210,60.0336 210.034,60 210.075,60 h 14.85 c 0.041,0 0.075,0.0336 0.075,0.075 v 14.85 C 225,74.9664 224.966,75 224.925,75 Z"
         id="path582"
         style="stroke-width:1.41355" />
    </g>
    <path
       id="text583"
       style="font-size:32px;line-height:0.95;font-family:Monospace;-inkscape-font-specification:Monospace;letter-spacing:0px;word-spacing:0px;white-space:pre;inline-size:223.85;fill:#ffffff;stroke-width:1"
       d="m 2895.2716,-201.29399 c -4.8761,0 -8.8753,1.28726 -11.9981,3.86228 -3.068,2.5202 -5.3423,6.05632 -6.8216,10.60368 -1.4245,4.54733 -2.1369,9.83375 -2.1369,15.86036 0,5.97181 0.7124,11.23276 2.1369,15.78011 1.4793,4.54736 3.7536,8.07844 6.8216,10.59865 3.0681,2.52024 7.0367,3.78202 11.9129,3.78202 4.8761,0 8.8498,-1.26178 11.9177,-3.78202 3.1229,-2.52021 5.4227,-6.05129 6.902,-10.59865 1.4792,-4.54735 2.2222,-9.86426 2.2222,-15.94562 0,-6.02662 -0.743,-11.28756 -2.2222,-15.78014 -1.4243,-4.54733 -3.6987,-8.07844 -6.8216,-10.59865 -3.0681,-2.52021 -7.0367,-3.78202 -11.9129,-3.78202 z m 345.156,0 c -4.8759,0 -8.875,1.28726 -11.9979,3.86228 -3.0682,2.5202 -5.3425,6.05632 -6.8218,10.60368 -1.4245,4.54733 -2.1367,9.83375 -2.1367,15.86036 0,5.97181 0.7122,11.23276 2.1367,15.78011 1.4793,4.54736 3.7536,8.07844 6.8218,10.59865 3.0679,2.52024 7.0416,3.78202 11.9178,3.78202 4.8762,0 8.8496,-1.26178 11.9178,-3.78202 3.1229,-2.52021 5.4226,-6.05129 6.9019,-10.59865 1.4793,-4.54735 2.2171,-9.86426 2.2171,-15.94562 0,-6.02662 -0.7378,-11.28756 -2.2171,-15.78014 -1.4245,-4.54733 -3.6987,-8.07844 -6.8215,-10.59865 -3.0682,-2.52021 -7.0419,-3.78202 -11.9181,-3.78202 z m -201.1787,0.74238 -19.0655,58.92212 h 7.4787 l 5.5878,-17.99718 h 19.8079 l 5.5876,17.99718 h 7.5591 l -19.1459,-58.92212 z m -212.1888,0.24577 v 58.67635 h 7.1477 v -32.70888 c 0,-3.0681 -0.1078,-6.13615 -0.3261,-9.20425 -0.2183,-3.06807 -0.4685,-6.13612 -0.7425,-9.20421 h 0.331 l 22.4365,51.11734 h 8.9585 v -58.67635 h -7.1528 v 31.06364 c 0,3.34204 0.056,6.35413 0.1643,9.0387 0.1104,2.62979 0.3028,5.56049 0.5768,8.79293 h -0.2465 l -21.3681,-48.89527 z m 98.618,0 v 58.67635 h 7.1477 v -32.70888 c 0,-3.0681 -0.1079,-6.13615 -0.3259,-9.20425 -0.2183,-3.06807 -0.4685,-6.13612 -0.7425,-9.20421 h 0.3311 l 22.4364,51.11734 h 8.9533 v -58.67635 h -7.1476 v 31.06364 c 0,3.34204 0.057,6.35413 0.1643,9.0387 0.1104,2.62979 0.2979,5.56049 0.5719,8.79293 h -0.2465 l -21.3678,-48.89527 z m 147.925,0 v 58.67635 h 7.1477 v -32.70888 c 0,-3.0681 -0.1079,-6.13615 -0.3262,-9.20425 -0.2183,-3.06807 -0.4684,-6.13612 -0.7424,-9.20421 h 0.331 l 22.4364,51.11734 h 8.9585 v -58.67635 h -7.1528 v 31.06364 c 0,3.34204 0.057,6.35413 0.1644,9.0387 0.1104,2.62979 0.3027,5.56049 0.5768,8.79293 h -0.2517 l -21.363,-48.89527 z m 47.2548,0 v 6.57086 h 17.2549 v 52.10549 h 7.3986 v -52.10549 h 17.2598 v -6.57086 z m 53.4148,0 v 58.67635 h 7.3984 v -23.99621 h 9.2042 l 14.1349,23.99621 h 8.216 l -15.6947,-26.13299 c 2.082,-0.76703 3.9441,-1.81004 5.5878,-3.12493 1.6983,-1.3697 3.0414,-3.09453 4.0279,-5.17645 0.9861,-2.13671 1.4795,-4.74172 1.4795,-7.80979 0,-10.95747 -6.8788,-16.43219 -20.6305,-16.43219 z m -278.8354,5.58774 c 4.8759,0 8.3,2.081 10.2726,6.24483 1.9723,4.16385 2.9541,9.96925 2.9541,17.42034 0,7.39629 -0.9818,13.20669 -2.9541,17.42532 -1.9726,4.16383 -5.4273,6.24483 -10.3581,6.24483 -4.9309,0 -8.411,-2.081 -10.4381,-6.24483 -2.027,-4.21863 -3.0396,-10.02903 -3.0396,-17.42532 0,-7.34151 1.0126,-13.12145 3.0396,-17.34008 2.0271,-4.21861 5.5378,-6.32509 10.5236,-6.32509 z m 345.156,0 c 4.8761,0 8.3003,2.081 10.2726,6.24483 1.9723,4.16385 2.9593,9.96925 2.9593,17.42034 0,7.39629 -0.987,13.20669 -2.9593,17.42532 -1.9723,4.16383 -5.4221,6.24483 -10.353,6.24483 -4.9309,0 -8.411,-2.081 -10.438,-6.24483 -2.0271,-4.21863 -3.0397,-10.02903 -3.0397,-17.42532 0,-7.34151 1.0126,-13.12145 3.0397,-17.34008 2.027,-4.21861 5.5328,-6.32509 10.5184,-6.32509 z m -58.9222,0.82261 h 5.9139 c 4.7115,0 8.1102,0.81921 10.1922,2.46283 2.1368,1.58882 3.2054,4.3312 3.2054,8.22111 0,3.67074 -1.0127,6.46407 -3.0397,8.38161 -1.9724,1.86278 -5.3713,2.79387 -10.1925,2.79387 h -6.0793 z m -138.56,1.14866 c 0.3834,1.69839 0.8262,3.39777 1.3193,5.09617 0.493,1.69842 0.8747,3.01113 1.1484,3.94253 l 5.4224,17.5056 h -15.695 l 5.4224,-17.5056 c 0.2738,-0.9314 0.6606,-2.24411 1.1536,-3.94253 0.4931,-1.6984 0.9002,-3.39778 1.2289,-5.09617 z m -61.5505,25.64141 v 6.57589 h 24.6533 v -6.57589 z m -86.289,49.91853 c -4.8761,0 -8.8753,1.28726 -11.9981,3.86227 -3.068,2.52021 -5.3423,6.05633 -6.8216,10.60368 -1.4245,4.54733 -2.1369,9.83375 -2.1369,15.86037 0,5.97181 0.7124,11.23275 2.1369,15.780106 1.4793,4.547356 3.7536,8.078442 6.8216,10.59865 3.0681,2.520234 7.0367,3.78202 11.9129,3.78202 4.8761,0 8.8498,-1.261786 11.9177,-3.78202 3.1229,-2.520208 5.4227,-6.051294 6.902,-10.59865 1.4792,-4.547356 2.2222,-9.864236 2.2222,-15.945626 0,-6.02661 -0.743,-11.28756 -2.2222,-15.78013 -1.4243,-4.54733 -3.6987,-8.07845 -6.8216,-10.59865 -3.0681,-2.52021 -7.0367,-3.78202 -11.9129,-3.78202 z m 98.6131,0 c -4.8759,0 -8.875,1.28726 -11.9979,3.86227 -3.0682,2.52021 -5.3374,6.05633 -6.8167,10.60368 -1.4245,4.54733 -2.1369,9.83375 -2.1369,15.86037 0,5.97181 0.7124,11.23275 2.1369,15.780106 1.4793,4.547356 3.7485,8.078442 6.8167,10.59865 3.0679,2.520234 7.0416,3.78202 11.9178,3.78202 4.8761,0 8.8496,-1.261786 11.9178,-3.78202 3.1228,-2.520208 5.4226,-6.051294 6.9019,-10.59865 1.4792,-4.547356 2.2171,-9.864236 2.2171,-15.945626 0,-6.02661 -0.7379,-11.28756 -2.2171,-15.78013 -1.4246,-4.54733 -3.6987,-8.07845 -6.8216,-10.59865 -3.0681,-2.52021 -7.0418,-3.78202 -11.918,-3.78202 z m 252.216,0.16564 c -5.3143,0 -9.8376,1.2313 -13.563,3.69673 -3.6709,2.41065 -6.4897,5.89081 -8.462,10.43814 -1.9174,4.49258 -2.8789,9.83493 -2.8789,16.02591 0,5.91703 0.8495,11.14749 2.5478,15.694846 1.6986,4.492552 4.3595,8.028671 7.9754,10.603658 3.616,2.575012 8.297,3.862275 14.0497,3.862275 2.2463,0 4.3579,-0.193383 6.3302,-0.576834 2.027,-0.383503 4.1334,-0.983937 6.3249,-1.805747 v -6.987181 c -2.1368,0.876588 -4.2991,1.532958 -6.4905,1.971265 -2.1368,0.383502 -4.1363,0.576833 -5.999,0.576833 -6.0814,0 -10.4622,-2.055526 -13.1469,-6.164575 -2.6845,-4.163853 -4.0276,-9.887835 -4.0276,-17.17454 0,-7.61546 1.4805,-13.45133 4.439,-17.5056 3.0132,-4.05424 7.3126,-6.07931 12.9009,-6.07931 2.0273,0 4.1083,0.24423 6.245,0.73734 2.1914,0.49309 4.135,1.20542 5.8333,2.13681 l 2.7939,-5.99906 c -2.0818,-1.09575 -4.3816,-1.94543 -6.9019,-2.5481 -2.4655,-0.60267 -5.1212,-0.90286 -7.9703,-0.90286 z m -416.9842,0.82261 v 58.676343 h 7.3934 V -80.12407 h 8.3016 c 5.3143,0 9.5068,-0.87518 12.5747,-2.62835 3.1229,-1.80799 5.3412,-4.16373 6.6561,-7.06747 1.3699,-2.90371 2.0517,-5.97175 2.0517,-9.20421 0,-5.47872 -1.613,-9.69666 -4.8453,-12.65518 -3.2325,-3.01332 -8.3563,-4.51936 -15.3689,-4.51936 z m 94.9164,0 v 58.676343 h 6.9872 V -89.32831 c 0,-2.08193 -0.057,-4.32575 -0.1644,-6.7364 -0.054,-2.41063 -0.1669,-4.74089 -0.331,-6.98718 -0.1644,-2.30107 -0.3832,-4.2447 -0.6572,-5.83352 h 0.331 l 10.9299,36.736645 h 6.8215 l 10.8494,-36.656385 h 0.3262 c -0.3837,2.90371 -0.6582,6.08368 -0.8226,9.53527 -0.1104,3.3968 -0.1644,6.70911 -0.1644,9.94157 v 31.806013 h 6.9872 v -58.676343 h -10.6838 l -9.781,34.43434 h -0.2466 l -9.7762,-34.43434 z m 102.3151,0 v 58.676343 h 7.3983 V -81.5185 h 9.2043 l 14.1349,23.996203 h 8.216 l -15.6948,-26.132983 c 2.082,-0.76704 3.9442,-1.81004 5.5878,-3.12494 1.6984,-1.3697 3.0415,-3.09452 4.0277,-5.17645 0.9861,-2.1367 1.4797,-4.73668 1.4797,-7.80478 0,-10.95747 -6.8788,-16.43719 -20.6305,-16.43719 z m 49.3114,0 v 58.676343 h 7.3935 V -80.12407 h 8.3015 c 5.3143,0 9.5068,-0.87518 12.5747,-2.62835 3.1229,-1.80799 5.3413,-4.16373 6.6562,-7.06747 1.3698,-2.90371 2.0517,-5.97175 2.0517,-9.20421 0,-5.47872 -1.6131,-9.69666 -4.8454,-12.65518 -3.2325,-3.01332 -8.3562,-4.51936 -15.3688,-4.51936 z m 47.2502,0 v 58.676343 h 7.3983 V -84.88921 h 23.0082 v 27.366913 h 7.3986 v -58.676343 h -7.3986 v 24.73354 h -23.0082 v -24.73354 z m 52.5969,0 v 5.0962 l 11.8327,1.06837 v 46.347198 l -11.8327,1.068378 v 5.096197 h 31.2292 v -5.096197 l -11.9981,-1.068378 v -46.347198 l 11.9981,-1.06837 v -5.0962 z m -280.0692,5.58774 c 4.8759,0 8.3,2.081 10.2726,6.24483 1.9723,4.16385 2.9541,9.97425 2.9541,17.42534 0,7.396293 -0.9818,13.201686 -2.9541,17.420318 -1.9726,4.163828 -5.4273,6.24483 -10.3581,6.24483 -4.9309,0 -8.411,-2.081002 -10.4381,-6.24483 -2.027,-4.218632 -3.0396,-10.024025 -3.0396,-17.420318 0,-7.34151 1.0126,-13.12144 3.0396,-17.34005 2.0271,-4.21863 5.5378,-6.33012 10.5236,-6.33012 z m 98.613,0 c 4.8762,0 8.3003,2.081 10.2727,6.24483 1.9723,4.16385 2.9592,9.97425 2.9592,17.42534 0,7.396293 -0.9869,13.201686 -2.9592,17.420318 -1.9724,4.163828 -5.4222,6.24483 -10.353,6.24483 -4.9309,0 -8.411,-2.081002 -10.4381,-6.24483 -2.027,-4.218632 -3.0396,-10.024025 -3.0396,-17.420318 0,-7.34151 1.0126,-13.12144 3.0396,-17.34005 2.0271,-4.21863 5.5329,-6.33012 10.5184,-6.33012 z m -157.5404,0.82261 h 8.7127 c 4.5475,0 7.8902,0.8497 10.0269,2.54809 2.1914,1.6984 3.2854,4.57314 3.2854,8.62741 0,4.32819 -1.2057,7.42172 -3.6164,9.28448 -2.4108,1.86276 -6.0537,2.79387 -10.9299,2.79387 h -7.4787 z m 197.2364,0 h 5.914 c 4.7115,0 8.1102,0.81921 10.1922,2.46283 2.1367,1.58882 3.2053,4.3312 3.2053,8.2211 0,3.67074 -1.0126,6.46408 -3.0396,8.38161 -1.9724,1.86279 -5.3713,2.79388 -10.1925,2.79388 h -6.0794 z m 49.3066,0 h 8.7127 c 4.5474,0 7.8901,0.8497 10.0268,2.54809 2.1914,1.6984 3.2855,4.57314 3.2855,8.62741 0,4.32819 -1.2058,7.42172 -3.6165,9.28448 -2.4107,1.86276 -6.0537,2.79387 -10.9298,2.79387 h -7.4787 z m -188.278,76.874137 c -5.917,0 -10.598,1.755308 -14.0496,5.261714 -3.4516,3.451601 -5.1763,8.163062 -5.1763,14.134871 0,5.971835 1.613,10.571402 4.8453,13.803842 3.2325,3.177664 7.5879,4.770149 13.0665,4.770149 3.3969,0 6.246,-0.686848 8.5471,-2.056531 2.356,-1.424471 4.0808,-3.149316 5.1766,-5.176433 h 0.4965 c -0.1105,3.177651 -0.5216,6.16429 -1.2338,8.958443 -0.6574,2.794154 -1.726,5.287257 -3.2053,7.478749 -1.4246,2.136706 -3.3681,3.831059 -5.8336,5.091168 -2.4654,1.205321 -5.5639,1.81075 -9.2895,1.81075 -2.6845,0 -4.9843,-0.330688 -6.9019,-0.988136 v 6.495626 c 0.9315,0.21914 2.0558,0.381987 3.3707,0.491563 1.3149,0.164362 2.6023,0.245772 3.8622,0.245772 4.3831,0 8.1074,-0.656364 11.1756,-1.97126 3.1229,-1.314895 5.6721,-3.095685 7.6444,-5.341964 2.027,-2.246281 3.589,-4.795337 4.6848,-7.644277 1.1506,-2.848939 1.9444,-5.805087 2.3825,-8.873177 0.4384,-3.122878 0.6572,-6.165479 0.6572,-9.123969 0,-6.464921 -0.8498,-11.695381 -2.5481,-15.694846 -1.6984,-3.999466 -4.0541,-6.930168 -7.0676,-8.792929 -3.0132,-1.917564 -6.5493,-2.879133 -10.6037,-2.879133 z m 49.3117,0 c -5.917,0 -10.6029,1.755308 -14.0545,5.261714 -3.4516,3.451601 -5.1766,8.163062 -5.1766,14.134871 0,5.971835 1.6179,10.571402 4.8505,13.803842 3.2325,3.177664 7.5878,4.770149 13.0665,4.770149 3.3969,0 6.246,-0.686848 8.5471,-2.056531 2.3557,-1.424471 4.0808,-3.149316 5.1763,-5.176433 h 0.4916 c -0.1104,3.177651 -0.5216,6.16429 -1.2338,8.958443 -0.6574,2.794154 -1.726,5.287257 -3.2053,7.478749 -1.4243,2.136706 -3.3681,3.831059 -5.8335,5.091168 -2.4655,1.205321 -5.5588,1.81075 -9.2844,1.81075 -2.6845,0 -4.9894,-0.330688 -6.9068,-0.988136 v 6.495626 c 0.9312,0.21914 2.0558,0.381987 3.3707,0.491563 1.3149,0.164362 2.602,0.245772 3.8622,0.245772 4.3828,0 8.1074,-0.656364 11.1754,-1.97126 3.1228,-1.314895 5.672,-3.095685 7.6443,-5.341964 2.0271,-2.246281 3.589,-4.795337 4.6849,-7.644277 1.1505,-2.848939 1.9443,-5.805087 2.3824,-8.873177 0.4384,-3.122878 0.6572,-6.165479 0.6572,-9.123969 0,-6.464921 -0.8498,-11.695381 -2.5481,-15.694846 -1.6983,-3.999466 -4.0541,-6.930168 -7.0673,-8.792929 -3.0135,-1.917564 -6.5444,-2.879133 -10.5988,-2.879133 z m 49.4722,0 c -3.8353,0 -7.234,0.686853 -10.1925,2.056527 -2.9585,1.314896 -5.5585,2.927826 -7.8046,4.845391 l 4.108,5.096171 c 1.9723,-1.588815 4.0839,-2.901554 6.33,-3.942504 2.3011,-1.040977 4.7382,-1.559975 7.3133,-1.559975 2.9585,0 5.3957,0.79374 7.3131,2.382581 1.9176,1.534036 2.8743,4.0526 2.8743,7.559006 0,3.670742 -1.15,7.150901 -3.4511,10.43814 -2.2461,3.287239 -5.3957,6.955706 -9.45,11.009968 l -15.6144,15.368806 v 6.24483 h 39.0388 v -6.575883 h -29.0924 V 19.68287 l 12.5699,-12.243882 c 4.2187,-4.054263 7.5054,-7.972002 9.8614,-11.752312 2.3558,-3.835129 3.5361,-7.971632 3.5361,-12.409404 0,-5.204804 -1.5874,-9.203962 -4.7649,-11.998115 -3.1229,-2.794154 -7.3154,-4.19331 -12.575,-4.19331 z m 98.6182,0 c -3.8353,0 -7.234,0.686853 -10.1925,2.056527 -2.9585,1.314896 -5.5585,2.927826 -7.8046,4.845391 l 4.108,5.096171 c 1.9723,-1.588815 4.0787,-2.901554 6.3251,-3.942504 2.3011,-1.040977 4.7431,-1.559975 7.3182,-1.559975 2.9585,0 5.3957,0.79374 7.3131,2.382581 1.9176,1.534036 2.8743,4.0526 2.8743,7.559006 0,3.670742 -1.15,7.150901 -3.4511,10.43814 -2.2464,3.287239 -5.3957,6.955706 -9.45,11.009968 l -15.6144,15.368806 v 6.24483 h 39.0339 v -6.575883 h -29.0926 V 19.68287 l 12.575,-12.243882 c 4.2187,-4.054263 7.5054,-7.972002 9.8614,-11.752312 2.3558,-3.835129 3.5361,-7.971632 3.5361,-12.409404 0,-5.204804 -1.5925,-9.203962 -4.7701,-11.998115 -3.1228,-2.794154 -7.3102,-4.19331 -12.5698,-4.19331 z m 49.5523,0 c -4.7118,0 -8.5175,1.205826 -11.4214,3.616476 -2.8488,2.355846 -4.9298,5.780071 -6.2447,10.272623 -1.3149,4.437773 -1.9762,9.836087 -1.9762,16.191425 0,9.478194 1.562,16.901561 4.6849,22.270719 3.1228,5.314369 8.1089,7.970312 14.9574,7.970312 4.7665,0 8.6028,-1.205844 11.5066,-3.616485 2.9036,-2.410642 5.0151,-5.860318 6.33,-10.352877 1.3149,-4.547348 1.9713,-9.971139 1.9713,-16.271669 0,-9.532994 -1.5925,-16.9309 -4.7701,-22.190483 -3.1228,-5.259582 -8.1346,-7.890041 -15.0378,-7.890041 z m 49.0608,0 c -3.8351,0 -7.2289,0.686853 -10.1874,2.056527 -2.9585,1.314896 -5.5634,2.927826 -7.8098,4.845391 l 4.1132,5.096171 c 1.9723,-1.588815 4.0787,-2.901554 6.3251,-3.942504 2.3011,-1.040977 4.738,-1.559975 7.3131,-1.559975 2.9585,0 5.3957,0.79374 7.3133,2.382581 1.9174,1.534036 2.8792,4.0526 2.8792,7.559006 0,3.670742 -1.15,7.150901 -3.4511,10.43814 -2.2464,3.287239 -5.3957,6.955706 -9.45,11.009968 l -15.6147,15.368806 v 6.24483 h 39.0342 v -6.575883 h -29.0926 V 19.68287 l 12.575,-12.243882 c 4.2187,-4.054263 7.5054,-7.972002 9.8614,-11.752312 2.3558,-3.835129 3.5313,-7.971632 3.5313,-12.409404 0,-5.204804 -1.5877,-9.203962 -4.7653,-11.998115 -3.1228,-2.794154 -7.3154,-4.19331 -12.5749,-4.19331 z m -345.156,0.822606 -16.3571,8.301357 3.2053,5.587742 6.8215,-3.536222 c 1.4246,-0.712227 2.4929,-1.231225 3.2053,-1.559949 0.7122,-0.328724 1.506,-0.740836 2.3825,-1.233922 -0.054,1.807982 -0.1361,4.112773 -0.2465,6.906926 -0.054,2.739375 -0.08,5.257939 -0.08,7.559007 v 30.898127 l -12.3293,0.822611 v 4.930658 h 31.8059 V 21.65413 l -12.4093,-0.822611 v -52.923066 z m 380.1671,0 -2.2171,27.61268 3.6165,2.302326 c 1.3699,-0.328724 2.9267,-0.603465 4.68,-0.822606 1.7532,-0.273945 3.3966,-0.411316 4.9306,-0.411316 4.2734,0 7.6721,1.043005 10.1925,3.124922 2.5748,2.081916 3.8622,5.175434 3.8622,9.284483 0,4.054263 -1.2874,7.06636 -3.8622,9.038703 -2.5751,1.917557 -6.1621,2.879144 -10.7642,2.879144 -2.5751,0 -5.0683,-0.305223 -7.4787,-0.907884 -2.4108,-0.657448 -4.5477,-1.588551 -6.4104,-2.793871 v 6.987189 c 1.8627,1.040958 4.1065,1.834693 6.7363,2.382565 2.6297,0.547875 5.2349,0.822614 7.8097,0.822614 6.8485,0 12.1348,-1.699372 15.8604,-5.096184 3.7804,-3.451601 5.668,-8.051168 5.668,-13.803836 0,-3.999476 -0.875,-7.316796 -2.6283,-9.946588 -1.6983,-2.684562 -3.9981,-4.684154 -6.9019,-5.999049 -2.9038,-1.314896 -6.1346,-1.971265 -9.6958,-1.971265 -1.26,0 -2.7408,0.08141 -4.4391,0.245772 -1.6436,0.109661 -3.0427,0.302914 -4.1933,0.576834 l 1.5651,-16.928743 h 22.9277 v -6.57589 z m -331.1064,5.341969 c 2.2464,0 4.19,0.468046 5.8336,1.399439 1.6436,0.931393 2.9868,2.132211 4.0276,3.611469 1.0412,1.424479 1.8093,2.961006 2.3024,4.604626 0.5478,1.588841 0.8226,3.094884 0.8226,4.519337 0,2.301068 -0.6054,4.356619 -1.8106,6.164601 -1.1505,1.807956 -2.7382,3.232589 -4.7652,4.273565 -2.0273,0.986159 -4.3271,1.479692 -6.9019,1.479692 -3.616,0 -6.4654,-1.012519 -8.5471,-3.039641 -2.0273,-2.027148 -3.0397,-5.26305 -3.0397,-9.700823 0,-4.492551 1.0938,-7.83534 3.2855,-10.026824 2.1914,-2.19151 5.1222,-3.285441 8.7928,-3.285441 z m 49.3066,0 c 2.2463,0 4.1948,0.468046 5.8384,1.399439 1.6436,0.931393 2.9819,2.132211 4.023,3.611469 1.0409,1.424479 1.809,2.961006 2.3021,4.604626 0.5481,1.588841 0.8226,3.094884 0.8226,4.519337 0,2.301068 -0.6002,4.356619 -1.8057,6.164601 -1.1505,1.807956 -2.743,3.232589 -4.7701,4.273565 -2.027,0.986159 -4.3268,1.479692 -6.9019,1.479692 -3.616,0 -6.4653,-1.012519 -8.5471,-3.039641 -2.0273,-2.027148 -3.0396,-5.26305 -3.0396,-9.700823 0,-4.492551 1.0937,-7.83534 3.2854,-10.026824 2.1914,-2.19151 5.1222,-3.285441 8.7929,-3.285441 z m 197.7279,0.331035 c 3.2325,0 5.8628,1.037997 7.8901,3.119924 l -19.4768,32.954647 c -0.3837,-1.698406 -0.6839,-3.58608 -0.903,-5.667999 -0.1644,-2.136706 -0.2466,-4.411028 -0.2466,-6.821658 0,-7.998958 1.0127,-13.916271 3.0397,-17.751374 2.0271,-3.889909 5.2581,-5.83354 9.6958,-5.83354 z m 11.5066,9.610526 c 1.0956,3.615963 1.6452,8.276498 1.6452,13.974388 0,8.108512 -1.0686,14.107248 -3.2053,17.997149 -2.1367,3.835111 -5.454,5.753269 -9.9465,5.753269 -3.616,0 -6.4348,-1.343212 -8.4618,-4.02779 z M 3030.8672,1.108885 v 6.575883 h 24.6532 V 1.108885 Z" />
  </g>
</svg>
